<?xml version="1.0" standalone="no"?>
<!DOCTYPE svg PUBLIC "-//W3C//DTD SVG 20010904//EN"
 "http://www.w3.org/TR/2001/REC-SVG-20010904/DTD/svg10.dtd">
<svg version="1.0" xmlns="http://www.w3.org/2000/svg"
 width="626.000000pt" height="626.000000pt" viewBox="0 0 626.000000 626.000000"
 preserveAspectRatio="xMidYMid meet">

<g transform="translate(0.000000,626.000000) scale(0.100000,-0.100000)"
fill="#000000" stroke="none">
<path d="M2970 5804 c-14 -3 -77 -11 -140 -20 -321 -43 -495 -96 -765 -231
-148 -74 -395 -238 -395 -263 0 -37 111 -205 275 -415 48 -60 109 -143 137
-184 28 -40 65 -90 83 -110 18 -20 59 -72 91 -117 33 -44 101 -136 153 -204
67 -88 97 -136 103 -166 8 -36 15 -44 47 -58 28 -11 52 -34 87 -83 26 -37 89
-122 139 -188 123 -162 175 -237 180 -263 5 -30 14 -42 30 -42 18 0 55 -52 55
-77 0 -11 11 -26 25 -33 13 -7 51 -48 84 -91 l60 -79 -35 0 c-31 0 -96 22
-146 50 -24 13 -65 13 -73 -1 -5 -7 -34 -9 -84 -5 -75 5 -75 5 -21 -6 30 -5
60 -11 67 -13 8 -3 11 -36 11 -112 -1 -103 3 -125 37 -205 5 -14 2 -18 -12
-18 -34 0 -101 -43 -164 -105 -49 -48 -72 -83 -114 -170 l-53 -110 -7 51 c-10
71 -17 80 -52 66 -15 -6 -44 -14 -63 -17 -19 -4 -43 -9 -52 -11 -27 -8 -22 20
14 88 41 78 85 108 155 108 63 0 99 13 136 48 41 38 57 74 57 126 0 165 -160
298 -293 242 -38 -15 -94 -76 -113 -122 -18 -43 -18 -106 0 -148 13 -32 13
-34 -20 -59 -18 -15 -35 -27 -38 -27 -12 0 -6 57 11 103 13 37 14 50 5 59 -9
9 -17 10 -30 2 -13 -9 -20 -6 -34 12 -10 12 -18 27 -18 32 0 15 -25 32 -36 24
-6 -4 -14 -16 -18 -27 -7 -18 -9 -18 -19 -4 -7 8 -20 18 -30 22 -30 11 -32
-22 -3 -82 20 -42 22 -50 7 -31 -30 38 -37 16 -12 -35 24 -48 25 -100 2 -100
-18 0 -23 11 -56 114 -28 84 -28 84 -10 140 9 31 28 76 42 100 30 52 28 55
-64 101 -75 37 -249 80 -355 87 l-77 6 6 -70 6 -70 -59 -7 c-33 -4 -73 -16
-90 -25 l-30 -18 -18 68 c-21 84 -49 127 -101 156 -76 43 -164 24 -217 -47
-28 -38 -35 -148 -14 -204 22 -57 76 -112 125 -127 l38 -11 -33 -49 c-21 -31
-39 -77 -50 -126 -16 -71 -16 -82 -1 -150 9 -40 32 -112 51 -160 l35 -86 -44
-39 c-25 -22 -45 -44 -45 -50 0 -6 13 -27 28 -47 41 -52 115 -175 153 -254
l34 -69 37 6 36 6 -5 -59 c-4 -44 0 -78 16 -132 20 -65 30 -81 81 -130 81 -78
118 -94 206 -92 115 2 194 53 225 142 14 40 -4 96 -37 118 l-25 16 26 27 c14
14 25 33 25 43 0 13 -77 125 -111 162 -6 5 -24 -6 -49 -30 -22 -21 -41 -37
-43 -34 -9 15 -26 73 -22 80 3 4 29 15 58 24 28 10 55 21 60 24 4 4 -2 29 -14
56 l-22 49 24 15 c34 21 115 108 149 160 17 24 44 79 62 122 25 63 34 76 47
70 9 -5 43 -12 76 -16 62 -7 140 -33 130 -43 -3 -3 -52 -15 -108 -27 l-102
-22 1 -74 c1 -42 15 -139 32 -219 17 -80 33 -156 34 -170 3 -20 11 -26 53 -35
28 -5 48 -15 46 -20 -2 -6 -14 -30 -25 -55 -19 -40 -21 -64 -21 -210 l0 -165
33 -65 c18 -36 49 -82 69 -103 35 -39 138 -111 175 -123 19 -6 19 -7 -5 -32
-107 -116 -74 -285 64 -322 22 -6 55 -8 74 -4 47 9 118 64 140 110 22 46 22
122 1 165 -19 39 -13 49 14 24 19 -17 79 -131 94 -179 4 -13 11 -16 24 -11 9
4 75 28 146 53 l129 46 31 -36 c44 -51 71 -64 154 -78 129 -21 226 2 309 74
72 63 99 146 72 227 -13 37 -55 99 -68 99 -5 0 -11 -18 -15 -39 -7 -47 -28
-71 -62 -71 -23 0 -24 3 -24 58 0 32 -7 80 -16 106 l-17 48 -49 -5 c-27 -4
-76 -14 -110 -23 l-60 -17 7 -56 c15 -110 12 -136 -12 -139 -17 -3 -26 4 -34
25 -41 97 -65 145 -99 198 l-39 60 11 70 c6 39 12 75 14 82 1 6 26 16 55 22
50 11 54 10 100 -20 27 -17 49 -35 49 -39 0 -5 -25 -12 -55 -15 -83 -11 -102
-54 -22 -55 27 0 36 -13 17 -25 -5 -3 -10 -13 -10 -22 0 -15 12 -15 53 2 12 5
17 2 17 -10 0 -15 7 -17 48 -12 26 3 73 11 105 18 57 13 62 13 130 -16 12 -5
17 -2 17 9 0 9 -7 19 -16 23 -30 11 -64 102 -64 173 l0 65 35 -72 c22 -44 51
-85 75 -106 36 -30 39 -36 25 -47 -33 -28 -35 -46 -9 -81 41 -54 75 -127 109
-232 18 -53 35 -100 38 -103 3 -3 30 5 59 19 29 14 123 46 208 72 148 44 236
83 246 108 2 7 -14 48 -36 92 -22 44 -40 85 -40 92 0 7 17 24 38 39 57 42 111
95 134 132 l20 32 39 -31 c49 -39 51 -59 4 -59 -36 0 -43 -8 -24 -27 8 -8 0
-13 -30 -18 -22 -4 -44 -11 -47 -16 -11 -18 18 -39 55 -39 24 0 31 -3 23 -9
-8 -5 -12 -17 -10 -27 3 -15 12 -19 43 -17 30 2 36 0 27 -9 -33 -33 1 -36 84
-7 65 22 136 22 191 -1 41 -18 53 -7 25 23 -52 56 -55 122 -7 176 35 39 44 64
25 76 -17 10 -11 44 12 75 42 57 35 183 -14 252 -17 25 -18 31 -5 70 13 37 21
45 61 59 57 21 168 99 196 139 45 64 63 122 62 200 -2 185 -92 292 -229 275
-59 -7 -113 -44 -113 -76 0 -18 -3 -17 -47 8 -40 22 -53 37 -76 87 -25 55 -62
117 -101 171 -15 20 -13 20 87 23 141 3 189 19 264 86 76 69 114 129 148 231
25 74 27 89 22 200 -8 201 -42 273 -185 396 -108 92 -233 139 -371 139 -61 0
-196 -31 -214 -49 -16 -16 -23 -14 -35 14 -18 40 -15 50 23 71 19 10 35 21 35
25 0 14 -31 31 -60 34 -17 1 -37 10 -44 20 -8 12 -19 16 -31 11 -13 -5 -34 10
-81 57 -34 35 -84 75 -111 89 -58 32 -183 68 -235 68 -21 0 -38 1 -38 3 0 2 7
24 16 50 15 44 17 46 37 33 30 -19 75 -28 98 -21 14 5 19 16 19 41 0 56 20
121 77 254 30 69 55 132 56 140 2 18 -51 45 -117 60 -27 6 -63 19 -80 29 -17
10 -69 26 -116 35 -58 12 -98 27 -127 47 l-42 30 -17 -28 c-40 -63 -39 -63
-107 -42 -34 10 -85 19 -112 19 -51 0 -51 0 -82 53 -17 28 -44 77 -59 107 -25
48 -33 55 -59 56 -16 0 -50 11 -74 23 -101 53 -226 30 -288 -52 -26 -35 -48
-50 -113 -76 -44 -19 -83 -38 -86 -43 -6 -10 162 -349 199 -401 15 -22 26 -28
43 -24 27 5 30 -10 15 -77 -15 -61 4 -140 58 -251 59 -121 125 -198 206 -242
l57 -30 -27 -22 c-41 -32 -75 -27 -108 14 -33 41 -66 60 -124 70 -39 6 -44 10
-52 43 -24 90 -31 132 -31 200 l0 72 -49 0 c-26 0 -86 -7 -132 -14 -46 -8
-124 -20 -174 -26 -137 -18 -151 -33 -120 -135 49 -158 47 -152 26 -130 -10
11 -109 142 -219 292 l-201 272 15 30 c19 38 169 180 245 232 57 38 68 59 31
59 -11 0 -7 9 17 34 34 35 29 56 -10 36 -11 -6 -27 -9 -35 -6 -8 3 -28 -4 -44
-16 -39 -29 -48 -17 -17 24 33 45 40 68 22 68 -18 0 -18 1 -6 33 7 19 19 26
53 31 121 17 180 32 231 58 9 4 29 5 43 2 20 -5 32 1 63 35 21 22 41 41 45 41
4 0 19 -9 33 -20 19 -15 41 -20 84 -20 33 0 67 4 77 9 59 30 72 33 129 26 54
-6 63 -4 99 20 34 23 45 26 90 20 34 -4 73 -1 112 9 119 31 179 17 206 -49 11
-24 23 -36 43 -40 15 -3 53 -19 83 -35 31 -15 94 -38 140 -50 46 -12 111 -33
143 -46 65 -27 87 -27 204 3 79 20 109 13 127 -32 8 -19 20 -35 27 -35 7 0 35
-24 64 -54 34 -34 69 -60 101 -71 80 -30 194 -118 194 -150 0 -5 16 -23 35
-38 20 -16 43 -46 51 -67 10 -25 34 -53 66 -77 27 -21 56 -52 64 -69 8 -17 32
-41 54 -55 38 -23 101 -104 120 -154 6 -15 29 -33 68 -50 33 -15 73 -40 88
-56 25 -26 28 -36 26 -88 -2 -45 4 -73 22 -114 13 -30 28 -57 34 -61 6 -3 13
-29 17 -58 7 -46 14 -57 70 -113 76 -75 96 -123 76 -188 -25 -82 -24 -94 2
-129 35 -46 48 -95 46 -169 -1 -49 5 -79 25 -128 32 -79 33 -111 5 -118 -18
-5 -20 -11 -14 -37 11 -47 8 -68 -15 -95 -11 -15 -30 -46 -42 -71 -13 -25 -23
-46 -24 -48 -1 -2 -13 0 -28 4 -34 8 -33 26 4 47 17 10 30 26 30 36 0 10 9 26
20 36 30 27 25 34 -22 28 l-43 -4 39 34 c39 34 47 56 50 132 1 29 -3 40 -14
40 -8 0 -20 6 -25 13 -11 14 -60 8 -70 -8 -3 -5 -21 -4 -41 2 -33 9 -39 7 -64
-17 -16 -15 -31 -42 -34 -60 -7 -35 -36 -70 -36 -43 0 8 7 23 15 34 16 21 20
54 6 54 -5 0 -19 -14 -31 -30 -12 -17 -34 -37 -50 -45 -28 -15 -36 -34 -47
-125 -6 -56 -35 -88 -85 -96 -23 -4 -38 -12 -38 -21 0 -11 11 -13 58 -7 70 8
108 -6 174 -65 25 -23 61 -47 78 -55 36 -15 80 -10 80 9 0 7 7 15 15 19 8 3
15 12 15 19 0 12 16 23 55 38 11 5 25 -67 25 -126 0 -23 9 -63 21 -89 17 -39
20 -63 17 -122 -4 -82 -13 -97 -105 -166 -44 -32 -53 -44 -53 -69 0 -17 -12
-50 -26 -74 -23 -40 -25 -51 -19 -110 9 -85 -3 -113 -70 -160 -32 -22 -58 -48
-64 -66 -5 -16 -14 -29 -20 -29 -19 0 -41 -32 -41 -61 0 -16 -4 -29 -8 -29 -4
0 -14 -17 -21 -37 -8 -20 -27 -49 -43 -64 -26 -23 -31 -37 -38 -98 -9 -86 -44
-159 -86 -183 -29 -17 -35 -17 -74 -3 -60 21 -75 19 -114 -15 -22 -20 -52 -33
-87 -40 -44 -8 -60 -17 -89 -49 -19 -22 -57 -50 -83 -61 -38 -17 -53 -32 -75
-70 -23 -43 -31 -50 -58 -50 -20 0 -38 -9 -52 -25 -12 -14 -28 -25 -36 -25 -7
0 -23 -22 -34 -50 -27 -64 -54 -73 -117 -35 -59 34 -85 30 -108 -18 -17 -34
-58 -59 -74 -44 -3 4 -27 -5 -54 -18 -27 -14 -56 -25 -65 -25 -46 0 -130 -37
-172 -77 -60 -55 -76 -58 -112 -23 -30 29 -30 29 -77 15 -43 -13 -50 -13 -71
3 -79 56 -117 67 -128 37 -4 -11 -11 -12 -24 -5 -20 11 -33 0 -44 -37 -10 -32
-39 -29 -79 7 -37 32 -67 37 -130 19 -47 -13 -67 -6 -105 32 l-29 30 -48 -26
c-60 -31 -80 -31 -125 0 -20 14 -67 32 -105 41 -100 22 -129 38 -205 105 -58
52 -75 61 -124 69 -73 12 -164 80 -107 80 10 0 21 6 24 14 3 9 15 12 31 9 30
-6 32 1 11 50 -20 48 -19 69 2 35 18 -29 63 -51 80 -39 5 3 9 29 9 56 -1 37 4
54 17 63 25 19 21 36 -18 90 -19 27 -49 80 -67 118 -28 59 -33 80 -33 147 0
85 -14 102 -33 38 -19 -62 -104 -183 -162 -229 -29 -23 -56 -42 -61 -42 -5 0
-19 -16 -33 -37 -17 -25 -22 -41 -16 -52 5 -10 3 -26 -6 -41 -7 -14 -13 -32
-14 -41 0 -12 -7 -15 -24 -12 -32 6 -55 32 -87 96 -20 41 -35 58 -76 80 -39
21 -55 36 -67 68 -10 24 -28 47 -46 57 -19 11 -30 25 -30 39 0 16 -20 37 -69
74 -84 62 -140 135 -193 249 -21 47 -56 103 -77 125 -57 60 -61 71 -44 129 20
66 12 126 -22 177 -57 87 -82 220 -53 284 16 36 -1 68 -54 96 -54 30 -61 60
-22 100 27 29 28 29 11 64 -21 44 -21 63 -1 103 12 26 13 38 4 64 -10 29 -8
42 15 103 39 99 42 144 15 216 -27 70 -18 109 23 109 65 0 345 -45 442 -70 61
-16 154 -34 207 -40 53 -5 152 -18 220 -29 67 -11 155 -22 193 -26 39 -4 117
-15 175 -26 350 -63 393 -65 95 -4 -115 24 -286 53 -380 65 -216 27 -363 51
-545 89 -116 24 -725 101 -801 101 -49 0 -69 -128 -69 -433 0 -553 64 -826
305 -1308 91 -181 161 -290 274 -426 192 -232 404 -406 731 -600 265 -158 611
-290 890 -340 144 -26 173 -28 400 -27 577 3 943 97 1380 354 322 190 683 547
941 931 107 159 211 374 258 534 67 227 91 396 98 695 5 234 3 275 -22 490
-32 280 -52 385 -104 545 -95 294 -186 467 -384 732 -151 203 -261 320 -448
474 -130 109 -190 150 -373 261 -165 100 -221 127 -376 184 -331 122 -449 149
-712 164 -168 9 -427 11 -478 4z m540 -40 c273 -28 434 -69 699 -178 174 -72
499 -263 676 -396 219 -166 501 -508 660 -800 72 -132 166 -367 199 -497 55
-217 106 -606 106 -807 -1 -621 -94 -945 -402 -1409 -136 -205 -189 -269 -362
-443 -255 -254 -498 -432 -736 -540 -149 -67 -376 -148 -470 -168 -301 -62
-677 -90 -887 -67 -190 20 -423 77 -643 157 -261 94 -367 147 -571 282 -183
122 -341 255 -499 418 -174 180 -241 277 -378 549 -130 258 -212 497 -246 715
-46 297 -51 792 -9 934 5 18 14 18 165 12 89 -4 167 -10 175 -13 9 -4 12 -14
9 -28 -3 -12 3 -54 14 -94 19 -67 19 -73 4 -104 -9 -18 -20 -34 -23 -37 -23
-17 -41 -60 -41 -100 0 -25 -9 -65 -20 -89 -11 -24 -20 -65 -20 -93 0 -27 -7
-63 -16 -79 -14 -29 -14 -34 12 -102 15 -40 41 -86 57 -103 23 -26 30 -45 37
-102 9 -72 54 -174 103 -235 24 -31 29 -104 13 -179 -7 -32 -4 -43 23 -83 41
-61 84 -147 105 -210 24 -75 51 -112 168 -237 59 -62 128 -137 154 -166 26
-29 59 -56 73 -58 38 -8 54 -23 100 -94 49 -75 54 -80 102 -80 28 0 41 -6 53
-24 8 -13 29 -27 45 -31 34 -7 49 -23 60 -62 6 -21 15 -29 42 -35 19 -3 48
-14 64 -22 17 -9 37 -16 46 -16 8 0 19 -4 25 -8 5 -5 29 -16 54 -25 33 -12 52
-28 69 -56 21 -33 36 -43 110 -71 117 -45 161 -66 192 -90 35 -29 97 -36 153
-17 41 14 50 14 81 1 21 -8 68 -14 121 -14 85 0 87 0 118 -34 46 -50 79 -56
114 -18 20 22 32 28 44 21 11 -6 21 -2 33 11 23 25 31 25 62 0 28 -22 85 -26
128 -10 18 7 33 7 47 -1 34 -18 84 -1 160 56 55 41 85 57 128 65 30 6 68 18
85 27 16 9 45 16 65 15 19 -2 53 7 74 18 39 19 40 19 82 0 60 -26 94 -14 169
59 42 42 72 63 102 71 46 11 73 41 73 78 0 47 26 89 64 102 21 6 56 29 80 49
29 25 58 40 85 45 30 4 47 15 68 41 32 39 66 45 124 21 41 -17 79 -5 121 40
28 30 58 126 58 184 0 22 10 44 30 67 17 19 33 47 36 63 4 17 14 30 26 34 17
4 20 10 15 34 -5 24 0 34 29 60 18 17 63 46 98 66 76 43 100 86 91 164 -5 36
-1 56 14 87 12 21 21 48 21 58 0 32 19 57 57 72 95 40 144 108 142 197 l-2 53
-6 -55 c-9 -79 -36 -120 -101 -153 -70 -35 -94 -63 -114 -131 -9 -30 -21 -58
-26 -61 -6 -3 -10 -16 -11 -28 -1 -14 -4 -10 -9 13 -7 28 -4 44 16 82 13 26
24 58 24 71 0 33 26 65 60 72 45 10 86 49 106 100 20 53 15 126 -15 220 -10
33 -16 75 -14 93 3 18 0 38 -6 46 -6 7 -9 20 -6 28 3 8 -1 21 -10 28 -28 23
-12 80 42 144 22 26 24 36 19 77 -5 37 -3 48 9 53 22 8 19 55 -7 123 -18 45
-23 79 -23 153 0 90 -2 98 -32 146 -38 59 -42 75 -12 48 42 -38 62 -77 70
-138 22 -173 28 -204 43 -240 20 -47 21 -100 2 -115 -8 -6 -16 -24 -19 -39 -9
-47 -38 -116 -58 -138 -23 -24 -25 -57 -4 -74 9 -7 15 -26 13 -44 -1 -17 4
-42 11 -55 8 -14 11 -38 7 -61 -4 -25 1 -55 14 -91 11 -30 18 -40 15 -24 -8
42 -25 182 -28 226 -1 20 -10 46 -19 56 -24 26 -23 35 7 63 14 13 28 38 31 57
3 18 10 36 15 39 5 3 9 16 9 30 0 14 9 37 20 52 19 25 20 34 10 76 -6 27 -16
58 -22 70 -7 11 -16 50 -20 86 -24 211 -26 216 -72 259 -23 22 -25 29 -19 81
8 78 -10 123 -72 190 -68 73 -85 99 -85 133 0 15 -10 47 -22 70 -18 35 -21 56
-19 124 3 118 -44 217 -117 246 -21 9 -57 36 -82 62 -25 26 -61 55 -82 66 -20
10 -46 32 -58 48 -11 17 -52 53 -90 82 -51 38 -71 59 -76 82 -10 49 -208 245
-296 293 -75 41 -108 74 -108 108 0 35 -27 63 -90 95 -65 33 -142 40 -224 21
-55 -12 -201 6 -250 31 -21 11 -64 25 -95 31 -44 8 -68 20 -108 54 -75 65
-132 75 -244 46 -63 -17 -99 -21 -144 -17 -52 5 -65 3 -95 -17 -30 -19 -48
-23 -122 -23 -73 0 -90 -3 -110 -21 -32 -29 -107 -22 -139 12 -32 34 -63 31
-95 -10 -24 -30 -31 -33 -63 -29 -25 4 -41 0 -49 -10 -7 -8 -21 -13 -33 -10
-11 3 -25 -1 -32 -10 -7 -8 -32 -18 -57 -20 -25 -3 -74 -11 -110 -17 -56 -11
-71 -10 -113 5 -43 15 -50 16 -71 2 -13 -9 -26 -28 -29 -44 -4 -20 -15 -32
-36 -40 -21 -7 -31 -18 -31 -31 0 -16 -8 -21 -32 -24 -32 -3 -37 -10 -52 -80
-6 -29 -42 -53 -85 -59 -20 -3 -31 7 -68 66 -65 104 -93 162 -87 178 14 38
305 215 484 294 159 71 334 124 535 163 149 29 556 37 775 14z m90 -329 c28
-25 62 -47 75 -50 14 -3 37 -8 53 -11 15 -3 56 -16 91 -30 70 -28 198 -36 322
-20 64 8 70 7 133 -23 70 -34 96 -61 96 -98 0 -30 54 -81 128 -122 34 -19 60
-36 58 -38 -2 -2 -30 6 -62 18 -40 15 -76 38 -110 72 -28 27 -59 54 -68 59 -9
5 -16 15 -16 22 0 7 -10 26 -22 41 -20 26 -24 27 -77 21 -138 -17 -203 -14
-257 10 -29 13 -92 30 -141 38 -52 10 -99 24 -115 36 -15 11 -36 20 -47 20
-41 0 -70 20 -90 60 -10 22 -15 40 -10 40 4 0 31 -20 59 -45z m-1410 -145 c0
-15 -12 -40 -19 -40 -22 1 -32 19 -22 38 11 20 41 21 41 2z m70 -42 c0 -5 -4
-7 -9 -4 -5 4 -5 -10 0 -32 6 -27 4 -43 -7 -60 -8 -12 -18 -21 -22 -18 -7 4
-7 -28 0 -64 6 -25 19 -41 29 -34 6 4 3 14 -7 25 -9 10 -14 20 -11 20 4 1 10
2 15 3 4 1 13 5 20 10 7 4 20 5 29 2 12 -5 13 -3 5 6 -8 10 -5 13 13 13 21 0
21 -2 9 -20 -19 -27 -18 -35 9 -35 20 -1 20 -2 4 -11 -9 -5 -22 -7 -29 -3 -7
4 -8 3 -4 -4 4 -7 3 -12 -1 -12 -9 0 -60 -41 -107 -87 -16 -15 -25 -21 -21
-13 5 8 -9 -3 -30 -25 -27 -30 -33 -33 -21 -12 9 15 14 27 11 27 -4 0 2 13 11
30 14 23 21 27 31 18 8 -6 13 -7 12 -2 -4 21 2 33 14 30 6 -1 9 -1 5 1 -4 2
-4 12 -1 21 4 15 3 15 -6 2 -6 -8 -11 -11 -11 -6 0 5 -7 3 -15 -4 -12 -10 -15
-10 -15 2 0 24 22 82 34 90 6 4 8 8 4 8 -4 0 -2 13 3 30 6 16 14 28 17 26 4
-2 7 6 7 18 0 16 -5 22 -17 18 -9 -2 -14 -10 -11 -18 3 -8 1 -14 -5 -14 -9 0
-20 -28 -29 -75 -2 -11 -8 -22 -13 -23 -6 -2 -8 -8 -4 -13 3 -5 1 -9 -4 -9 -9
0 -12 -16 -12 -57 0 -13 -5 -23 -11 -23 -7 0 -9 11 -7 25 3 14 1 25 -4 25 -6
0 -8 7 -4 15 3 8 2 14 -2 13 -4 -1 -17 4 -30 11 -23 12 -23 12 -8 -12 9 -13
13 -27 9 -32 -5 -4 -2 -5 5 -1 7 4 12 1 12 -9 0 -10 -5 -13 -12 -9 -7 4 -8 3
-4 -5 4 -6 12 -9 17 -5 5 3 8 -14 6 -42 -1 -26 -8 -49 -14 -51 -11 -4 -25 39
-29 87 -1 14 -3 27 -4 30 -2 3 -4 12 -4 20 -1 8 -7 14 -14 13 -11 -3 -14 4
-11 23 0 4 -5 11 -13 15 -9 6 -9 9 -1 9 6 0 15 -5 18 -11 5 -6 12 -4 22 8 8
10 12 13 9 6 -3 -6 6 -15 22 -21 25 -9 28 -7 30 15 1 13 6 32 12 42 5 10 6 22
2 26 -4 5 -2 5 4 2 13 -8 24 13 24 45 0 12 5 18 13 16 6 -3 21 4 32 15 11 11
14 17 7 12 -11 -6 -12 -3 -3 13 10 19 15 20 36 10 14 -6 25 -15 25 -20z m1072
-63 c27 -49 50 -94 51 -100 1 -5 -16 -12 -38 -16 -22 -3 -49 -10 -60 -14 -19
-8 -18 -6 3 17 36 40 24 136 -26 191 -16 18 -16 19 2 16 11 -3 38 -40 68 -94z
m-165 45 c40 -24 50 -58 28 -99 -21 -43 -53 -53 -115 -40 -54 12 -80 42 -80
94 0 56 104 84 167 45z m-1033 -12 c-4 -13 -13 -27 -19 -33 -7 -5 -16 -27 -19
-47 -8 -44 -12 -46 -35 -16 -17 20 -48 18 -36 -3 4 -5 -3 -9 -14 -9 -14 0 -21
6 -21 20 0 16 7 20 35 20 25 0 37 6 46 23 10 18 57 65 67 67 2 0 0 -10 -4 -22z
m742 -54 c8 -55 55 -121 104 -147 28 -14 51 -17 110 -14 41 3 84 8 95 12 12 4
9 -2 -10 -16 -58 -43 -150 -146 -174 -193 -22 -46 -59 -73 -86 -62 -12 4 -205
370 -205 388 0 8 134 77 152 78 4 0 10 -21 14 -46z m854 -79 c7 -8 40 -24 74
-34 110 -35 167 -59 201 -86 19 -14 48 -28 65 -32 28 -5 31 -9 27 -32 -8 -41
-36 -121 -64 -182 -14 -31 -31 -80 -37 -109 -7 -30 -16 -55 -22 -57 -5 -2 -24
6 -41 17 -28 17 -33 26 -33 57 0 56 -52 194 -93 250 -20 27 -59 71 -86 96
l-51 47 16 40 c18 44 25 48 44 25z m-1770 -25 c0 -10 -22 -24 -64 -40 -21 -7
-26 -6 -26 5 0 8 8 15 18 15 10 0 27 7 38 15 22 17 34 19 34 5z m66 -60 c4
-14 15 -54 25 -90 18 -58 18 -105 2 -133 -3 -5 -41 40 -85 100 l-80 108 41 18
c22 10 46 27 52 39 11 21 12 21 26 2 8 -10 16 -30 19 -44z m1486 14 c15 -8 35
-14 45 -14 10 0 27 -7 37 -15 10 -8 23 -12 28 -9 15 10 57 -24 78 -64 12 -20
32 -55 45 -77 42 -70 67 -129 72 -171 5 -38 2 -44 -30 -70 -39 -31 -39 -44 0
-44 24 0 25 -1 19 -52 -3 -29 -6 -58 -7 -65 -1 -6 -20 -18 -42 -27 -37 -14
-39 -14 -25 2 8 9 15 35 16 57 1 39 -1 41 -51 65 -110 51 -148 58 -160 25 -6
-14 32 -45 55 -45 7 0 24 -9 38 -20 l25 -19 -40 -35 c-40 -35 -94 -54 -115
-41 -6 4 -22 24 -36 46 -13 22 -29 37 -35 34 -13 -9 -8 -223 7 -243 10 -14 14
-13 35 1 13 10 35 17 50 17 l26 0 -16 -34 c-17 -37 -35 -46 -91 -46 -47 0 -63
13 -63 49 0 36 -7 38 -32 11 -25 -28 -58 -25 -124 10 -43 23 -63 41 -79 73
-12 23 -39 69 -59 101 -44 72 -50 126 -15 141 31 14 27 28 -6 20 -46 -10 -53
9 -36 90 20 95 78 191 155 255 66 55 87 68 131 81 37 10 58 2 58 -23 0 -11 4
-16 11 -13 6 4 8 12 6 19 -2 6 0 22 4 34 8 22 13 23 52 17 23 -4 54 -14 69
-21z m601 -65 c35 -16 32 -29 -29 -185 -24 -61 -50 -139 -58 -174 -8 -34 -17
-65 -20 -68 -3 -3 -16 0 -28 6 -17 8 -19 11 -6 11 18 1 20 5 43 96 9 33 22 69
30 81 18 29 66 163 68 194 2 20 -4 26 -37 35 -22 6 -42 17 -44 23 -4 12 32 4
81 -19z m828 -312 c12 -22 12 -22 -10 -3 -11 11 -21 23 -21 28 0 14 19 -1 31
-25z m131 -107 c26 -27 68 -59 92 -71 49 -23 88 -73 105 -135 13 -47 13 -102
0 -129 -7 -15 -8 -8 -4 24 11 87 -36 169 -119 206 -40 18 -61 37 -98 89 -56
78 -44 86 24 16z m-2160 -125 c3 -38 13 -101 21 -140 16 -73 15 -85 -9 -85
-21 0 -90 -66 -104 -99 -14 -35 -52 -51 -122 -51 -67 0 -110 20 -130 61 -32
69 -51 115 -68 174 -10 33 -24 75 -31 92 -11 28 -11 35 1 47 9 8 83 25 180 40
91 14 176 27 190 29 61 11 65 7 72 -68z m1084 -16 c209 -54 326 -170 403 -397
28 -84 27 -148 -9 -287 -38 -153 -88 -242 -188 -337 -96 -90 -143 -112 -231
-105 -89 7 -191 41 -243 80 -66 50 -150 181 -189 295 -30 88 -33 110 -37 240
-4 162 8 252 43 323 43 83 130 153 240 191 66 23 115 22 211 -3z m-386 -35 c0
-8 -4 -14 -9 -14 -11 0 -22 26 -14 34 9 9 23 -3 23 -20z m792 -195 c15 -8 19
-8 14 0 -4 6 -2 11 3 11 20 0 11 -28 -15 -45 -25 -16 -26 -16 -19 4 5 15 2 21
-9 21 -9 0 -16 5 -16 10 0 13 16 13 42 -1z m-1013 -58 c31 -5 35 -11 47 -56 7
-27 17 -63 23 -78 6 -16 11 -57 11 -92 0 -34 7 -100 16 -145 8 -45 14 -83 12
-85 -2 -1 -40 -5 -86 -8 -64 -5 -83 -4 -79 6 2 7 16 11 30 9 21 -3 27 1 27 17
0 11 -4 23 -10 26 -5 3 -15 16 -21 28 -10 19 -7 18 18 -5 31 -30 52 -36 54
-15 2 17 1 20 -6 40 -5 12 -2 17 10 17 32 0 9 58 -70 178 -57 87 -75 123 -75
149 0 35 1 35 33 28 17 -4 47 -10 66 -14z m-325 -20 c17 -19 17 -20 -16 -23
-24 -2 -33 -8 -33 -21 0 -20 -51 -57 -77 -57 -28 0 -23 53 8 89 31 38 90 43
118 12z m421 -32 c-7 -40 -9 -41 -21 -24 -19 26 -18 52 3 64 24 13 26 9 18
-40z m-235 23 c0 -17 -39 -44 -55 -39 -23 9 -18 22 13 34 35 14 42 15 42 5z
m125 -182 c52 -79 70 -119 43 -92 -30 30 -38 0 -12 -49 22 -43 7 -50 -25 -11
-15 17 -31 32 -34 32 -15 0 -6 -49 15 -75 l22 -28 -27 7 c-20 5 -29 2 -33 -8
-3 -8 -11 -13 -19 -10 -7 3 -22 -11 -35 -33 -20 -34 -23 -35 -32 -19 -6 11
-11 52 -12 92 -2 118 -23 86 -28 -43 -3 -66 -6 -71 -26 -51 -16 16 -32 -5 -32
-43 0 -15 -9 -37 -20 -50 l-19 -24 -1 39 0 40 -31 -32 c-17 -18 -38 -32 -46
-32 -15 0 -15 6 -1 71 2 8 -3 13 -9 12 -7 -2 -18 -4 -24 -5 -29 -7 -16 22 21
46 45 30 50 41 19 49 -12 3 -18 10 -14 17 4 6 1 17 -5 25 -14 17 -5 35 18 35
25 1 104 38 131 63 l23 22 -7 -25 c-4 -14 -31 -74 -61 -133 -30 -60 -50 -106
-45 -102 19 11 113 187 141 262 l28 78 12 -40 c7 -22 15 -76 19 -120 6 -67 8
-75 16 -50 6 20 1 64 -14 143 -13 62 -20 117 -16 120 9 9 32 -22 61 -83 14
-29 24 -42 24 -30 0 11 -18 49 -40 85 -37 60 -50 107 -34 123 4 4 18 -15 31
-41 13 -26 48 -85 78 -132z m-291 150 c44 -16 34 -47 -21 -64 -27 -8 -38 -15
-26 -15 12 -1 33 3 47 9 22 8 26 7 26 -9 0 -24 -39 -59 -70 -62 -43 -4 -60 0
-55 14 3 6 -5 17 -17 22 -32 15 -35 35 -4 35 15 0 29 7 32 15 3 8 15 17 26 21
13 4 18 12 15 25 -6 21 8 24 47 9z m-276 -77 c15 -87 49 -137 124 -177 47 -26
56 -35 52 -52 -3 -12 -1 -25 5 -29 6 -3 8 -11 5 -17 -4 -6 1 -17 11 -24 10 -8
17 -15 14 -17 -2 -1 -20 -15 -40 -30 l-37 -26 -25 38 c-14 20 -49 66 -79 102
-30 35 -89 111 -132 169 l-77 105 71 7 c39 3 74 9 77 12 15 14 21 2 31 -61z
m417 20 c-11 -63 -24 -74 -25 -22 0 46 5 59 23 59 5 0 6 -16 2 -37z m1645 -19
c144 -49 175 -68 210 -130 37 -63 38 -87 5 -108 -35 -23 -31 -36 10 -36 48 0
63 -27 66 -115 2 -86 -8 -168 -27 -219 -18 -48 -10 -61 9 -15 21 50 31 134 28
229 -2 89 -17 128 -52 137 -17 5 -17 7 -2 30 15 23 15 27 -6 71 -22 45 -22 46
-3 28 12 -10 36 -53 53 -95 28 -66 33 -90 37 -182 7 -174 -31 -272 -150 -384
-85 -81 -141 -106 -233 -104 l-60 2 56 7 c98 12 219 91 219 141 0 12 7 19 19
19 11 0 23 5 27 11 4 7 0 9 -13 5 -11 -4 -32 -2 -47 3 -25 10 -37 -1 -16 -14
34 -21 -12 -76 -97 -119 -76 -38 -151 -43 -243 -17 -40 11 -76 19 -78 17 -7
-7 35 -26 90 -40 34 -10 44 -15 27 -15 -42 -1 -178 37 -251 71 -57 26 -72 38
-84 67 -18 42 -58 87 -95 106 -31 17 -43 50 -23 66 17 14 14 17 48 -43 34 -59
76 -95 121 -104 27 -5 34 -11 37 -32 2 -19 15 -33 43 -49 22 -13 47 -22 55
-22 8 0 -3 9 -25 19 -57 27 -67 45 -49 88 17 41 12 52 -14 29 -42 -38 -111 -1
-154 82 -24 46 -27 57 -16 73 21 31 31 24 65 -43 33 -66 55 -89 82 -89 9 0 46
24 83 53 37 28 77 59 88 67 12 8 22 24 23 35 2 16 -3 19 -23 17 -14 -2 -34
-12 -46 -23 -18 -17 -64 -27 -64 -14 0 4 7 19 15 34 15 29 13 90 -3 100 -29
19 -42 94 -22 132 15 26 40 12 80 -46 28 -41 60 -60 60 -35 0 6 -4 10 -9 10
-19 0 -50 67 -60 129 -16 98 -43 127 -92 101 -18 -10 -19 -7 -19 43 0 51 1 53
33 65 48 17 64 15 71 -10 7 -21 8 -20 20 12 12 32 17 36 62 41 71 10 116 2
234 -37z m-428 -326 c-9 -9 -15 -9 -24 0 -9 9 -7 12 12 12 19 0 21 -3 12 -12z
m-1137 -8 c3 -5 1 -10 -4 -10 -6 0 -11 5 -11 10 0 6 2 10 4 10 3 0 8 -4 11
-10z m-88 -32 c-3 -8 -6 -5 -6 6 -1 11 2 17 5 13 3 -3 4 -12 1 -19z m1228 -18
c-3 -5 -13 -10 -21 -10 -8 0 -14 5 -14 10 0 6 9 10 21 10 11 0 17 -4 14 -10z
m-1278 -37 c-17 -18 -22 -8 -11 22 5 12 10 13 17 6 8 -8 6 -16 -6 -28z m371 6
c9 -17 36 -61 59 -97 40 -64 41 -67 27 -100 -19 -47 -18 -56 6 -32 25 25 37
25 72 2 l27 -18 -54 -43 c-30 -23 -55 -46 -55 -50 0 -4 -11 -13 -25 -19 -28
-13 -43 -56 -25 -77 10 -12 16 -11 43 6 18 10 35 19 38 19 4 0 9 -17 12 -37 4
-35 -26 -133 -41 -133 -3 0 -19 12 -35 28 l-30 27 7 -40 c13 -74 37 -109 79
-117 45 -9 59 -3 121 53 57 52 62 67 41 129 -16 48 -16 51 4 84 27 44 26 65
-5 111 -21 31 -22 36 -7 30 10 -4 28 -10 41 -12 33 -8 56 -94 50 -189 -4 -55
-11 -83 -33 -120 -43 -75 -83 -116 -142 -147 -58 -30 -86 -26 -98 13 -11 34
-23 22 -18 -18 4 -31 0 -44 -21 -69 -33 -39 -89 -52 -117 -27 -28 25 -23 34
20 34 44 0 56 11 65 60 3 19 9 47 12 63 4 15 2 27 -4 27 -5 0 -15 -28 -22 -63
l-12 -63 -49 -11 c-35 -7 -54 -6 -65 1 -11 9 -5 11 27 11 53 0 74 26 95 118
15 63 15 69 -3 100 -25 41 -50 47 -63 12 -5 -14 -10 -37 -10 -51 0 -28 -18
-31 -62 -8 -18 9 -42 14 -58 10 -22 -4 -29 -1 -33 15 -6 23 15 68 43 94 25 23
25 35 1 35 -18 0 -130 -70 -173 -108 -26 -22 -22 -54 12 -97 17 -21 29 -39 27
-41 -3 -4 -101 21 -114 29 -5 3 -19 27 -32 53 l-24 47 21 17 c11 10 39 20 61
24 63 10 49 25 -21 23 l-63 -2 1 63 c1 35 5 67 11 73 16 16 63 -7 63 -30 0
-34 35 -44 129 -37 46 3 87 8 89 11 2 2 -8 20 -23 39 -39 51 -29 74 45 114 34
18 65 30 71 26 5 -3 17 0 25 7 22 18 26 6 10 -31 -28 -67 5 -96 58 -50 35 32
86 140 86 184 0 53 -45 71 -153 64 -92 -7 -173 -38 -231 -89 -45 -40 -47 -41
-72 -25 l-25 17 20 28 c31 43 105 107 153 132 48 26 133 47 191 48 33 1 40 -3
55 -30z m916 -28 c3 -5 -3 -11 -14 -14 -20 -5 -26 3 -13 16 9 10 21 9 27 -2z
m-1374 -72 c-9 -16 -14 -18 -26 -8 -19 15 -18 29 4 45 23 17 38 -7 22 -37z
m1390 11 c0 -5 -5 -10 -11 -10 -5 0 -7 5 -4 10 3 6 8 10 11 10 2 0 4 -4 4 -10z
m0 -50 c0 -5 -4 -10 -10 -10 -5 0 -10 5 -10 10 0 6 5 10 10 10 6 0 10 -4 10
-10z m-1030 -24 c0 -8 -4 -18 -10 -21 -5 -3 -10 3 -10 14 0 12 5 21 10 21 6 0
10 -6 10 -14z m80 -6 c0 -5 -5 -10 -11 -10 -5 0 -7 5 -4 10 3 6 8 10 11 10 2
0 4 -4 4 -10z m-173 -42 c-3 -8 -6 -5 -6 6 -1 11 2 17 5 13 3 -3 4 -12 1 -19z
m-1450 -29 c107 -23 240 -78 249 -104 6 -15 -45 -125 -71 -154 -11 -11 -15
-10 -24 8 -15 28 7 80 45 109 27 21 28 23 11 36 -25 19 -233 96 -260 96 -18 0
-19 -2 -7 -10 8 -5 23 -10 33 -10 22 0 165 -56 190 -74 17 -13 16 -16 -8 -62
-14 -26 -27 -50 -30 -52 -2 -3 -20 9 -40 27 -63 55 -181 101 -260 101 -30 0
-30 1 -31 55 l0 55 53 0 c29 0 96 -10 150 -21z m-556 -28 c34 -34 39 -45 39
-84 0 -60 -17 -97 -45 -97 -53 0 -125 81 -125 141 0 37 36 79 67 79 16 0 39
-14 64 -39z m1949 29 c0 -5 -2 -10 -4 -10 -3 0 -8 5 -11 10 -3 6 -1 10 4 10 6
0 11 -4 11 -10z m-82 -39 c8 -4 26 -34 42 -65 l29 -56 -32 0 c-24 0 -28 3 -17
10 11 7 12 14 4 27 -5 10 -20 35 -33 56 -22 36 -20 45 7 28z m2218 -7 c-5 -13
-1 -15 21 -10 25 5 22 0 -28 -46 -30 -29 -81 -83 -113 -120 -56 -65 -99 -99
-141 -112 -19 -5 -20 -1 -20 75 0 69 3 83 20 95 18 13 20 12 27 -7 l8 -22 25
23 c14 13 30 40 35 60 13 47 47 81 60 60 6 -8 10 -26 10 -40 l1 -25 27 31 c23
27 57 53 71 54 2 0 0 -7 -3 -16z m-1178 -39 c75 -84 38 -194 -71 -212 -30 -4
-40 0 -72 29 -30 27 -38 43 -42 81 -10 87 30 136 113 137 36 0 47 -5 72 -35z
m-3262 -46 c-12 -49 -15 -51 -21 -28 -4 17 -1 38 10 59 23 45 28 32 11 -31z
m2985 41 c-11 -43 -3 -129 16 -171 26 -59 94 -128 134 -136 l30 -6 -41 -37
c-22 -20 -40 -45 -40 -54 0 -9 12 -40 27 -69 14 -29 32 -70 38 -92 12 -38 11
-41 -29 -100 -23 -33 -52 -86 -65 -117 -17 -42 -29 -58 -42 -58 -35 0 -140
-60 -183 -104 -49 -51 -141 -214 -155 -276 -6 -25 -11 -66 -11 -92 0 -39 -3
-48 -18 -48 -10 0 -23 -5 -28 -10 -7 -7 -14 -3 -23 13 -11 21 -10 30 7 63 43
84 55 156 49 287 -6 144 -33 254 -83 345 -32 56 -33 63 -17 68 10 3 28 10 41
15 28 11 45 12 38 1 -10 -17 21 -132 47 -171 29 -43 90 -81 131 -81 35 0 116
37 149 68 103 97 89 241 -32 323 -50 33 -61 52 -41 64 6 4 25 34 42 68 38 75
48 188 25 275 l-14 53 26 -3 c17 -2 25 -8 22 -18z m1493 -41 c-11 -21 -24 -39
-30 -39 -18 0 -64 -51 -64 -71 0 -14 9 -19 43 -21 42 -3 42 -3 17 -17 -14 -8
-58 -16 -99 -19 l-75 -5 45 54 c63 78 173 181 178 168 2 -6 -5 -28 -15 -50z
m-1746 -21 c-3 -7 -13 -15 -24 -17 -16 -3 -17 -1 -5 13 16 19 34 21 29 4z
m-2038 -22 c-41 -7 -89 -20 -107 -29 -18 -9 -37 -17 -42 -17 -21 0 -132 -93
-148 -123 -9 -18 -24 -38 -34 -45 -28 -20 -23 -35 5 -17 13 9 30 30 37 46 14
35 99 102 174 138 39 18 71 24 147 27 89 4 102 2 153 -22 38 -18 65 -41 89
-73 46 -62 96 -165 96 -195 0 -39 -19 -77 -40 -83 -23 -6 -25 -14 -8 -31 20
-20 1 -14 -36 12 -39 26 -37 36 6 36 31 0 68 31 68 56 0 26 -92 187 -125 217
-47 44 -83 60 -124 54 -20 -3 -60 -9 -88 -13 l-53 -7 20 -27 c14 -20 20 -44
19 -82 l0 -53 -22 44 c-12 24 -35 54 -50 65 -27 20 -29 20 -58 3 -17 -9 -37
-17 -45 -17 -8 0 -22 -16 -31 -35 -9 -19 -22 -35 -28 -35 -7 0 -24 -11 -39
-24 -23 -19 -26 -27 -18 -43 8 -14 7 -33 -3 -68 -30 -96 -7 -222 52 -288 18
-20 33 -41 33 -45 0 -4 23 -31 50 -59 89 -92 53 -76 -43 20 -74 73 -98 103
-114 147 -21 56 -52 205 -54 257 l-1 28 -8 -28 c-6 -18 -4 -48 6 -83 8 -30 14
-72 14 -94 0 -73 58 -159 199 -294 l51 -49 70 5 c39 3 72 2 75 -2 2 -4 28 -5
57 -2 37 3 62 12 84 31 18 14 47 38 65 53 18 15 47 34 65 43 19 9 34 25 38 40
4 14 11 25 16 25 16 0 12 -15 -17 -57 -57 -82 -149 -145 -233 -161 -65 -12
-235 9 -286 35 -76 40 -223 252 -245 352 -28 134 20 260 134 349 134 104 195
131 292 130 l60 0 -75 -12z m2752 -27 l42 -21 -35 -19 c-51 -27 -59 -24 -59
21 0 22 2 40 5 40 3 0 25 -10 47 -21z m998 6 c-7 -9 -15 -13 -19 -10 -3 3 1
10 9 15 21 14 24 12 10 -5z m-4462 -104 c-10 -62 -10 -72 6 -97 l19 -27 -32
-26 c-53 -44 -40 -87 43 -147 27 -20 29 -24 19 -55 l-10 -34 -11 27 c-6 14
-22 37 -35 50 -13 12 -35 54 -48 91 -23 65 -23 69 -7 98 13 22 16 42 12 68 -8
48 36 173 48 140 4 -11 2 -51 -4 -88z m1701 65 c33 -17 51 -54 51 -104 0 -49
-22 -79 -67 -91 -69 -19 -133 38 -133 120 0 39 4 51 26 68 31 24 83 27 123 7z
m-636 -120 c41 -87 39 -115 -2 -34 -22 43 -52 95 -67 115 l-28 38 37 -34 c20
-19 47 -57 60 -85z m2559 97 c71 -20 89 -41 153 -172 l39 -82 -31 -25 c-17
-13 -41 -40 -53 -60 -16 -25 -27 -33 -39 -28 -54 23 -155 45 -211 45 -74 0
-143 -20 -213 -62 -47 -29 -67 -30 -67 -5 0 7 -18 42 -40 79 -34 55 -38 70
-29 85 17 27 69 60 130 83 30 12 69 33 87 47 46 37 173 110 195 111 9 1 45 -7
79 -16z m-2301 -53 c5 0 9 -9 9 -19 0 -27 15 -34 30 -16 18 22 44 20 35 -2
-29 -68 -38 -102 -31 -126 8 -34 26 -34 56 -2 30 32 35 31 50 -5 9 -22 19 -30
39 -30 14 0 32 -4 40 -9 11 -7 8 -12 -12 -26 -35 -23 -87 -105 -94 -150 l-6
-37 -20 32 c-26 42 -19 105 18 154 15 20 23 36 18 36 -14 0 -63 -72 -63 -92 0
-9 -4 -19 -9 -23 -13 -7 -71 175 -71 222 0 25 -3 34 -10 27 -13 -13 3 -102 36
-198 13 -39 24 -72 24 -73 0 -1 -21 11 -47 27 -46 28 -103 48 -103 37 0 -4 19
-15 43 -25 53 -24 143 -88 151 -107 6 -18 5 -18 -29 -5 -14 5 -55 14 -91 20
-79 13 -106 28 -98 53 3 10 6 41 6 68 -1 43 2 50 26 62 28 13 32 29 18 81 -6
26 -5 28 8 17 25 -21 20 10 -11 73 -30 61 -23 86 11 44 28 -35 36 -35 36 0 0
39 13 49 23 18 5 -14 13 -26 18 -26z m2836 8 c-3 -8 -6 -5 -6 6 -1 11 2 17 5
13 3 -3 4 -12 1 -19z m293 -7 c0 -5 -11 -16 -25 -25 -14 -9 -25 -23 -25 -31 0
-9 11 -21 25 -27 30 -14 32 -24 4 -31 -11 -3 -23 -14 -25 -24 -7 -24 -52 -45
-73 -33 -9 5 -41 34 -71 65 l-55 55 45 -14 c25 -7 58 -19 73 -25 16 -6 38 -11
50 -11 13 1 1 8 -28 19 -27 10 -65 24 -84 31 l-34 13 29 15 c16 9 61 19 99 22
39 4 76 8 83 9 6 0 12 -3 12 -8z m-3813 -51 c13 -24 25 -46 28 -48 5 -5 -8 42
-20 71 -4 10 -3 17 4 17 14 0 61 -93 61 -122 0 -33 15 -52 35 -45 9 4 13 3 10
-2 -3 -5 -1 -12 4 -15 11 -7 28 14 28 34 0 8 12 41 27 73 15 33 25 65 22 73
-3 8 1 14 9 14 8 0 26 -22 39 -48 13 -26 43 -67 66 -90 57 -57 52 -73 -30 -88
l-64 -11 29 23 c37 30 24 31 -22 3 -20 -13 -33 -28 -31 -37 4 -19 72 -68 108
-77 17 -4 11 2 -18 20 -42 26 -48 45 -13 45 21 0 99 -49 126 -79 l20 -23 -28
-20 c-21 -16 -27 -28 -27 -59 0 -27 -4 -39 -14 -39 -8 0 -27 -16 -42 -36 -36
-46 -74 -45 -88 3 -7 24 -16 33 -35 35 -18 2 -27 10 -29 26 -4 28 -18 28 -33
0 -15 -28 -6 -115 16 -159 23 -44 19 -41 62 -49 l38 -8 -42 -1 c-23 0 -48 -4
-57 -7 -10 -4 -16 -1 -16 9 0 24 -22 32 -35 14 -7 -10 -20 -17 -30 -17 -15 0
-13 4 9 26 14 15 27 36 28 48 5 63 2 154 -4 150 -5 -3 -8 -32 -8 -65 0 -35 -4
-59 -11 -59 -25 0 -49 22 -49 47 0 20 -3 23 -13 14 -10 -8 -17 -7 -25 1 -18
18 -14 38 11 58 22 19 22 19 -16 8 -43 -13 -53 -7 -66 39 l-9 30 47 -3 46 -4
-30 15 c-16 8 -36 14 -42 15 -7 0 -13 7 -13 15 0 11 8 13 30 9 36 -8 40 3 6
15 -13 5 -26 19 -29 31 -5 20 -4 21 16 6 53 -38 77 -47 98 -36 13 7 19 19 17
33 -2 17 -29 35 -109 77 -58 30 -111 59 -117 63 -20 14 -1 37 30 37 22 0 42
-13 79 -50 27 -27 55 -50 62 -50 7 0 -7 17 -31 39 -66 61 -90 141 -42 141 11
0 22 5 25 11 11 17 28 4 52 -41z m2061 -19 c3 -8 -1 -12 -9 -9 -7 2 -15 10
-17 17 -3 8 1 12 9 9 7 -2 15 -10 17 -17z m-1683 -61 c-3 -5 -10 -10 -16 -10
-5 0 -9 5 -9 10 0 6 7 10 16 10 8 0 12 -4 9 -10z m1402 -12 c-3 -8 -6 -5 -6 6
-1 11 2 17 5 13 3 -3 4 -12 1 -19z m-232 -43 c186 -32 293 -113 379 -290 51
-104 65 -160 73 -302 15 -251 -72 -397 -279 -470 -65 -22 -84 -25 -178 -20
-142 6 -200 29 -291 114 -109 104 -185 252 -209 409 -14 94 -9 155 24 251 32
93 79 165 154 234 95 89 157 103 327 74z m1991 -26 c43 -26 82 -106 90 -186 8
-72 -17 -157 -67 -229 -31 -46 -107 -106 -163 -129 -42 -18 -46 -18 -46 -5 0
5 22 21 49 34 59 30 136 113 167 181 28 59 32 171 9 220 l-15 30 8 -35 c15
-71 8 -163 -17 -212 -30 -62 -104 -144 -152 -168 -21 -11 -40 -20 -42 -20 -3
0 -6 35 -9 78 -8 141 -65 231 -184 287 -41 19 -74 38 -74 41 0 15 57 74 72 74
25 0 121 -44 172 -79 52 -36 72 -39 81 -10 10 29 -1 63 -30 98 -24 28 -24 30
-8 40 32 18 122 13 159 -10z m-176 -38 c0 -12 -20 -25 -27 -18 -7 7 6 27 18
27 5 0 9 -4 9 -9z m-3495 -11 c8 -13 -5 -13 -25 0 -13 8 -13 10 2 10 9 0 20
-4 23 -10z m2405 -25 c68 -35 79 -135 20 -187 -34 -31 -64 -35 -115 -14 -35
15 -65 59 -65 96 0 11 9 38 19 59 30 58 84 76 141 46z m652 -26 c29 -6 100
-29 158 -52 184 -72 246 -160 244 -347 0 -106 -10 -160 -29 -160 -12 0 -15 15
-15 65 0 241 -134 410 -354 445 -120 19 -190 -1 -280 -81 -64 -57 -117 -140
-146 -229 -19 -58 -22 -85 -17 -149 7 -103 38 -164 136 -262 93 -94 157 -123
266 -122 57 0 83 6 139 32 91 41 107 24 19 -20 -66 -33 -72 -34 -183 -33 -95
0 -125 4 -170 22 -84 34 -131 71 -177 140 -55 82 -74 144 -80 267 -12 235 76
393 260 466 79 31 142 36 229 18z m-3047 -19 c3 -5 1 -10 -4 -10 -6 0 -11 5
-11 10 0 6 2 10 4 10 3 0 8 -4 11 -10z m5 -60 c0 -5 -6 -10 -14 -10 -8 0 -18
5 -21 10 -3 6 3 10 14 10 12 0 21 -4 21 -10z m3109 -16 c47 -13 52 -17 40 -30
-23 -22 -176 -81 -263 -100 l-80 -17 -22 29 c-26 32 -23 46 4 21 12 -11 34
-16 63 -15 l44 1 -40 4 c-22 3 -48 12 -58 20 -16 16 -16 17 0 36 23 25 89 59
133 68 43 9 107 2 179 -17z m-2556 -46 c-3 -18 -10 -37 -15 -43 -10 -10 -2 50
9 68 9 16 12 5 6 -25z m-538 12 c3 -5 2 -10 -4 -10 -5 0 -13 5 -16 10 -3 6 -2
10 4 10 5 0 13 -4 16 -10z m1105 -55 c5 -20 10 -98 11 -172 l3 -135 -36 -13
c-53 -18 -116 -57 -171 -106 l-49 -42 -43 21 c-43 21 -44 23 -48 74 l-3 53 -2
-63 c-2 -62 -2 -63 28 -68 29 -6 58 -30 48 -39 -3 -3 -28 0 -57 7 -50 11 -51
12 -51 47 0 20 -10 79 -21 131 -11 52 -24 135 -29 185 -9 93 -6 126 5 59 8
-52 57 -215 62 -210 3 2 -7 41 -21 86 -14 44 -26 94 -26 110 0 24 5 29 33 35
17 3 65 16 106 27 58 17 77 19 92 10 25 -16 28 -15 22 6 -4 15 4 21 40 32 49
13 63 9 78 -24 8 -17 8 -14 4 14 -7 47 13 26 25 -25z m2125 4 l44 -41 -15 -31
c-33 -62 -4 -149 64 -192 23 -15 31 -28 32 -50 l0 -31 -59 1 c-45 0 -64 -5
-81 -20 -35 -32 -52 -74 -60 -148 -4 -37 -10 -71 -13 -74 -3 -3 -17 3 -31 14
-18 13 -27 31 -31 63 -22 162 -42 206 -127 287 -59 55 -148 105 -222 124 -25
6 -46 14 -46 18 0 3 9 17 20 31 l20 25 23 -27 c15 -19 32 -28 52 -28 58 0 241
51 300 84 33 19 66 34 73 35 7 0 32 -17 57 -40z m-2440 -19 c-11 -5 -36 -8
-55 -8 l-35 0 30 8 c17 4 41 8 55 8 23 1 23 0 5 -8z m-518 -32 c-3 -7 -5 -2
-5 12 0 14 2 19 5 13 2 -7 2 -19 0 -25z m233 12 c-6 -11 -15 -20 -20 -20 -4 0
-30 -16 -55 -36 -26 -19 -49 -33 -51 -31 -7 7 75 77 90 77 7 0 19 7 26 15 18
21 23 19 10 -5z m-144 -77 c-34 -35 -48 -45 -57 -36 -8 8 -6 13 10 18 14 4 21
15 21 30 0 18 6 25 28 28 15 2 31 5 36 6 4 0 -12 -20 -38 -46z m2944 43 c0 -3
-4 -8 -10 -11 -5 -3 -10 -1 -10 4 0 6 5 11 10 11 6 0 10 -2 10 -4z m-3190 -15
c0 -12 -20 -25 -27 -18 -7 7 6 27 18 27 5 0 9 -4 9 -9z m210 -11 c0 -5 -5 -10
-11 -10 -5 0 -7 5 -4 10 3 6 8 10 11 10 2 0 4 -4 4 -10z m-46 -15 c3 -8 1 -15
-4 -15 -6 0 -10 7 -10 15 0 8 2 15 4 15 2 0 6 -7 10 -15z m3037 -18 c-8 -8
-11 -7 -11 4 0 20 13 34 18 19 3 -7 -1 -17 -7 -23z m-3491 11 c0 -6 -10 -22
-21 -34 l-22 -23 24 -29 c13 -15 53 -81 89 -145 36 -64 68 -116 73 -117 4 0 0
15 -9 33 -15 30 -119 199 -147 239 -10 15 -8 21 9 38 l21 21 54 -50 c43 -41
70 -56 132 -76 82 -26 197 -33 284 -16 l43 8 11 -41 c6 -22 12 -42 13 -44 0
-2 -24 -13 -55 -26 -50 -20 -60 -21 -82 -9 -15 7 -46 16 -70 19 -41 6 -48 3
-85 -31 -23 -20 -44 -45 -47 -56 -6 -18 -62 -49 -90 -49 -7 0 -18 15 -24 33
-6 17 -33 68 -60 112 -26 44 -64 110 -84 146 l-36 66 27 21 c30 24 52 28 52
10z m3516 -68 c8 0 14 -9 14 -20 0 -34 -32 -17 -66 35 l-19 30 29 -23 c16 -12
35 -22 42 -22z m-519 -6 c65 -31 118 -89 154 -170 44 -96 36 -174 -16 -174
-14 0 -25 -4 -25 -10 0 -5 14 -10 30 -10 41 0 66 -49 53 -100 -8 -30 -14 -35
-42 -38 -28 -3 -33 -1 -27 13 19 49 18 63 -6 78 -12 8 -60 17 -106 21 -129 9
-129 18 0 55 157 44 167 61 86 146 -29 30 -64 66 -78 81 -33 35 -137 95 -177
101 -18 3 -33 7 -33 8 0 2 3 11 6 20 6 14 16 16 68 10 33 -3 84 -18 113 -31z
m-323 -47 c-5 -37 -11 -47 -26 -47 -25 0 -69 -23 -89 -46 -35 -41 -99 -181
-92 -201 3 -7 0 -20 -7 -29 -26 -30 4 -38 136 -39 145 0 168 7 142 47 -16 24
-54 38 -104 38 -33 0 -36 12 -14 58 l20 41 40 -26 c24 -16 44 -39 50 -59 6
-17 28 -56 50 -86 27 -39 36 -58 29 -69 -5 -10 -4 -30 2 -50 20 -60 81 -179
93 -179 21 0 110 52 149 86 34 32 77 45 77 25 0 -5 -17 -27 -37 -49 -27 -29
-65 -53 -128 -81 l-90 -40 -22 21 c-13 12 -25 29 -29 40 -9 30 -24 20 -24 -16
0 -60 -7 -66 -67 -66 -30 0 -52 -4 -48 -9 3 -5 -11 -5 -32 1 -97 27 -251 131
-221 149 11 7 10 13 -1 31 -8 13 -15 50 -15 85 -1 35 -6 67 -13 75 -32 31 9
194 71 287 44 64 112 114 149 108 18 -2 30 1 33 10 12 39 15 45 19 41 3 -3 2
-26 -1 -51z m271 -127 c-3 -5 -11 -10 -16 -10 -6 0 -7 5 -4 10 3 6 11 10 16
10 6 0 7 -4 4 -10z m-1618 -16 c3 -9 1 -25 -6 -36 -13 -21 -2 -105 24 -179 27
-74 15 -66 -28 21 -23 46 -54 93 -68 103 -25 18 -28 18 -57 3 -17 -9 -39 -28
-49 -42 -10 -14 -39 -50 -65 -80 -56 -63 -67 -94 -45 -128 13 -19 28 -24 79
-29 35 -4 86 -12 115 -18 28 -7 59 -9 67 -6 28 11 -8 66 -55 85 -44 17 -48 26
-18 43 19 10 26 5 66 -40 44 -50 46 -51 64 -35 13 12 17 24 13 38 -6 19 -6 19
10 3 34 -33 60 -9 47 44 -5 19 -12 48 -15 64 l-7 30 22 -35 c11 -19 39 -54 62
-77 32 -34 38 -46 29 -55 -19 -19 -14 -46 11 -54 12 -4 45 -6 74 -5 88 4 206
-26 161 -41 -6 -2 0 -15 15 -31 32 -31 34 -60 7 -122 -43 -99 -167 -208 -270
-235 -42 -11 -45 -11 -65 14 l-21 26 -22 -23 c-21 -22 -27 -23 -80 -15 -31 5
-68 15 -82 22 -47 25 -143 85 -162 103 -54 49 -90 195 -64 257 13 30 13 36 0
47 -23 19 -16 85 16 163 43 103 132 181 192 169 22 -4 28 -2 28 12 0 43 63 74
77 39z m1580 -24 c5 0 20 -11 33 -25 l23 -25 -33 0 c-18 0 -42 -7 -52 -17 -21
-19 -37 -10 -19 11 8 9 10 28 5 53 -7 37 -6 38 13 21 11 -10 24 -18 30 -18z
m83 6 c0 -3 -4 -8 -10 -11 -5 -3 -10 -1 -10 4 0 6 5 11 10 11 6 0 10 -2 10 -4z
m1015 -112 c-8 -13 -38 -35 -66 -50 -58 -29 -57 -15 3 22 41 26 67 71 70 121
1 15 3 6 5 -20 3 -33 -1 -57 -12 -73z m-3585 86 c14 -14 20 -33 20 -62 0 -38
-1 -40 -17 -25 -10 8 -31 19 -46 22 -23 6 -29 4 -34 -14 -3 -11 -10 -21 -16
-21 -8 0 -8 -3 0 -11 6 -6 9 -18 6 -25 -4 -10 0 -12 11 -8 11 4 16 1 16 -10 0
-9 5 -16 11 -16 5 0 7 -4 4 -10 -10 -16 11 -12 25 5 7 8 29 19 50 25 20 5 58
26 83 45 51 39 57 41 57 21 0 -7 -12 -21 -26 -31 -14 -9 -23 -19 -21 -22 3 -3
16 2 29 11 28 20 48 21 48 2 0 -7 9 -16 20 -19 11 -3 20 -13 20 -23 0 -18
-105 -128 -130 -136 -22 -7 -1 -58 27 -69 19 -7 25 -3 38 21 8 16 15 36 15 45
0 8 6 15 13 15 23 0 50 -38 50 -70 0 -38 -46 -98 -91 -117 -51 -21 -133 -28
-175 -14 -53 18 -129 91 -162 158 -26 50 -30 69 -30 138 1 94 31 177 74 200
40 22 107 19 131 -5z m3094 12 c7 -12 -47 -123 -67 -140 -14 -12 -17 -9 -27
25 -17 56 -10 95 20 110 29 15 66 17 74 5z m11 -81 c-15 -27 -39 -60 -52 -73
-17 -15 -9 2 24 54 54 85 70 96 28 19z m71 -22 c3 -24 -1 -44 -15 -66 -17 -27
-27 -33 -56 -33 -40 0 -57 23 -33 43 9 7 30 34 48 60 35 53 47 52 56 -4z
m-1039 5 c-3 -3 -12 -4 -19 -1 -8 3 -5 6 6 6 11 1 17 -2 13 -5z m66 -41 c-7
-2 -19 -2 -25 0 -7 3 -2 5 12 5 14 0 19 -2 13 -5z m673 -58 c8 -20 33 -19 41
1 5 13 7 13 14 2 13 -20 11 -24 -16 -36 -36 -17 -58 -15 -51 3 3 8 1 15 -4 15
-6 0 -10 7 -10 15 0 8 5 15 10 15 6 0 13 -7 16 -15z m-1041 -62 c11 -15 15
-15 29 -4 19 16 19 17 16 -95 -1 -60 2 -90 15 -114 23 -44 -1 -36 -33 11 -21
29 -23 42 -19 94 4 44 3 55 -5 42 -5 -10 -10 -41 -10 -69 l1 -50 -22 18 c-21
18 -21 18 1 -7 l23 -26 -57 -6 c-86 -9 -83 -23 4 -19 68 3 79 1 96 -17 l19
-21 -59 0 c-32 -1 -70 -7 -84 -15 -35 -20 -57 -20 -40 0 18 22 5 30 -25 17
-35 -16 -53 -16 -37 0 21 21 13 28 -27 28 -57 0 -60 18 -4 26 59 8 93 21 93
33 0 5 -22 22 -50 38 -27 15 -50 31 -50 34 0 8 68 39 85 39 8 0 27 -16 42 -35
15 -19 32 -35 37 -35 6 0 -4 15 -22 33 -18 18 -32 38 -32 45 0 17 50 47 72 44
11 -2 18 3 18 12 0 21 10 20 25 -1z m-2245 -78 l54 -70 -43 40 c-24 22 -52 58
-63 80 -24 47 -19 42 52 -50z m3423 30 c16 -34 47 -48 47 -22 0 9 16 14 47 16
26 1 51 5 56 8 4 3 7 -1 6 -8 -2 -8 0 -27 4 -43 6 -22 4 -33 -11 -47 -11 -10
-23 -15 -28 -11 -4 4 -4 1 0 -6 4 -7 2 -19 -4 -27 -8 -10 -10 -31 -5 -62 l6
-48 -26 27 c-14 15 -28 42 -31 60 l-5 33 15 -25 c8 -14 15 -20 16 -15 0 6 -7
21 -16 34 -13 18 -14 25 -4 31 6 4 12 11 13 16 1 5 4 8 8 7 3 -1 5 9 5 23 0
30 -17 31 -36 2 -15 -24 -16 -28 -18 -65 -3 -30 -21 -21 -49 23 -13 19 -19 33
-15 30 5 -3 9 2 9 10 0 8 -6 13 -13 10 -8 -3 -20 8 -29 26 -19 38 -19 42 0 34
8 -3 14 -2 14 2 -6 36 25 27 44 -13z m-2223 5 c0 -5 -4 -10 -9 -10 -6 0 -13 5
-16 10 -3 6 1 10 9 10 9 0 16 -4 16 -10z m1759 -25 c1 -2 -11 -3 -28 -3 -20 1
-36 8 -42 19 -9 17 -7 17 28 2 21 -8 40 -17 42 -18z m501 25 c0 -5 -4 -10 -10
-10 -5 0 -10 5 -10 10 0 6 5 10 10 10 6 0 10 -4 10 -10z m-131 -21 c-11 -6
-10 -9 3 -14 9 -4 28 -24 41 -44 20 -30 23 -41 14 -50 -9 -9 -8 -11 5 -6 12 5
20 1 25 -11 4 -11 16 -27 27 -37 19 -17 19 -17 -15 -13 -19 3 -39 5 -44 6 -6
2 -31 2 -57 1 -42 -1 -48 -4 -48 -22 0 -18 2 -19 15 -9 20 16 145 6 157 -12 4
-7 8 -10 8 -5 0 7 60 -20 60 -27 0 -2 -17 -4 -37 -4 -21 0 -46 -3 -56 -7 -9
-4 -23 -2 -31 4 -11 9 -16 9 -22 0 -4 -8 -3 -9 4 -5 7 4 12 2 12 -3 0 -10 -17
-15 -47 -14 -7 1 -13 -3 -13 -8 0 -5 -5 -9 -10 -9 -6 0 -3 12 7 28 9 15 13 24
8 19 -4 -4 -18 1 -29 10 -20 17 -20 17 -6 -1 14 -18 13 -19 -2 -13 -10 3 -20
2 -23 -3 -3 -5 -14 -8 -25 -7 -21 1 -17 17 5 17 23 0 29 22 10 36 -13 10 -23
10 -38 3 -15 -9 -18 -8 -11 3 6 10 4 10 -10 -1 -12 -10 -20 -11 -28 -3 -8 8
-4 13 15 17 14 4 29 5 34 2 4 -3 19 -1 32 4 19 8 21 12 11 24 -15 18 1 20 19
3 11 -10 13 -10 7 0 -4 7 -2 12 6 12 7 0 19 10 27 23 7 12 10 19 7 15 -4 -3
-28 12 -52 35 l-45 41 43 22 c39 20 78 23 47 3z m-339 -50 c0 -6 -4 -7 -10 -4
-5 3 -10 11 -10 16 0 6 5 7 10 4 6 -3 10 -11 10 -16z m-2844 -112 c8 -15 25
-33 38 -38 13 -6 32 -30 44 -55 15 -31 33 -49 63 -64 45 -23 47 -40 2 -21 -15
7 -44 33 -63 58 -19 25 -53 64 -75 87 -22 22 -51 54 -65 70 l-25 29 33 -19
c19 -10 40 -32 48 -47z m707 -94 c0 -7 5 -13 10 -13 5 0 6 -7 3 -16 -3 -8 -2
-12 4 -9 6 3 13 -2 17 -12 3 -10 19 -34 35 -54 40 -52 37 -79 -5 -42 -18 17
-19 17 -32 0 -11 -15 -13 -10 -18 34 -4 28 -16 66 -27 85 -13 20 -23 57 -26
91 l-4 58 21 -55 c11 -30 21 -61 22 -67z m-88 70 c-10 -61 -101 -183 -124
-169 -7 4 -9 1 -5 -8 3 -9 -2 -17 -15 -21 -27 -8 -28 -25 -1 -18 11 3 20 9 20
13 0 8 39 23 53 21 5 -1 6 3 3 8 -4 5 3 16 14 24 11 7 18 16 16 18 -2 2 3 10
11 18 12 11 14 8 11 -25 -2 -22 -8 -39 -15 -39 -6 0 -15 -4 -20 -8 -4 -5 -1
-7 7 -5 10 2 15 -7 17 -34 1 -21 -1 -39 -5 -42 -13 -8 -45 23 -39 38 8 21 -30
12 -58 -14 l-22 -21 -13 32 c-7 17 -13 38 -13 45 0 10 -4 11 -11 4 -13 -13
-26 -13 -26 1 0 5 5 7 10 4 6 -3 10 1 10 9 0 16 39 48 51 41 4 -3 9 2 13 10 7
18 32 20 39 3 3 -7 4 -3 4 9 -1 12 -6 19 -12 15 -5 -3 7 12 28 33 21 22 46 52
55 67 22 37 26 35 17 -9z m1783 -47 c115 -58 265 -76 352 -42 72 28 72 27 99
-47 23 -67 24 -69 5 -87 -10 -10 -77 -36 -147 -59 -119 -38 -187 -66 -187 -76
0 -2 19 5 43 15 23 10 93 33 155 50 110 29 192 63 192 78 0 4 -14 34 -30 66
-17 32 -30 68 -30 79 0 28 4 22 45 -67 l35 -78 -30 -28 c-21 -20 -68 -40 -162
-69 -73 -23 -167 -55 -208 -71 -89 -35 -86 -37 -125 79 -23 69 -45 113 -101
208 -18 31 -18 32 0 52 24 27 36 26 94 -3z m-1753 -7 c-4 -5 6 -25 21 -44 14
-19 27 -47 29 -62 5 -53 16 -79 38 -88 16 -7 22 -19 22 -42 1 -18 -3 -33 -8
-33 -4 0 -5 -6 -2 -12 4 -7 -5 0 -19 15 -14 15 -27 37 -27 48 -2 19 -4 32 -9
47 -2 4 -3 14 -4 22 -1 8 -8 15 -16 15 -12 0 -14 -13 -12 -67 2 -37 7 -82 12
-99 8 -27 7 -29 -6 -18 -12 10 -16 9 -21 -9 -6 -26 -16 -28 -33 -7 -7 8 -17
12 -23 8 -7 -4 -8 0 -3 13 4 10 14 71 22 134 8 63 18 122 21 130 3 8 5 28 4
44 -2 18 1 26 8 21 6 -3 9 -11 6 -16z m1109 -89 c47 -79 79 -150 65 -150 -5 0
-17 16 -25 35 -8 19 -19 35 -25 35 -5 0 -19 -21 -31 -46 -19 -44 -22 -120 -7
-173 3 -10 -17 -19 -71 -31 -42 -9 -97 -24 -122 -33 l-47 -15 -12 36 c-6 20
-25 58 -40 84 -16 27 -29 52 -29 56 0 4 28 23 62 42 81 46 180 138 203 190 10
22 23 39 29 37 6 -2 28 -32 50 -67z m336 -22 c6 -24 13 -49 15 -55 2 -7 5 -49
6 -93 1 -71 4 -80 21 -80 48 0 128 61 143 110 8 24 8 24 21 -14 8 -22 11 -54
8 -76 -8 -50 -70 -129 -124 -160 -41 -23 -55 -25 -160 -24 -122 1 -184 18
-222 61 -39 43 -62 166 -38 203 10 16 12 15 27 -21 14 -32 65 -72 112 -88 58
-19 61 -9 46 168 -8 88 -7 93 11 89 14 -2 21 -18 30 -63 l12 -60 -5 68 -5 69
28 -4 c25 -3 31 -9 41 -48 l13 -45 -4 53 c-4 63 9 68 24 10z m-1658 -76 c-7
-2 -10 -7 -7 -12 3 -4 -6 -15 -20 -24 -14 -9 -25 -12 -25 -6 0 5 5 10 12 10 6
0 8 3 5 7 -10 10 24 44 36 36 8 -5 7 -8 -1 -11z m1825 -14 c-3 -7 -5 -2 -5 12
0 14 2 19 5 13 2 -7 2 -19 0 -25z m-1754 -50 c-13 -35 -28 -66 -31 -70 -10
-10 -24 2 -45 34 -21 34 -21 44 1 40 9 -1 33 11 52 27 19 17 38 30 42 31 4 0
-5 -28 -19 -62z m66 28 c9 -11 10 -25 2 -50 -5 -20 -7 -36 -5 -36 3 0 0 -9 -6
-20 -10 -18 -8 -19 14 -10 13 5 26 6 29 3 7 -6 -13 -53 -22 -53 -12 1 -56 29
-46 30 6 0 -2 7 -17 16 -29 15 -28 29 4 87 7 12 13 25 14 30 1 4 2 9 3 12 2
10 19 5 30 -9z m1651 -47 c0 -5 -4 -9 -8 -9 -5 0 -9 7 -9 15 0 8 4 12 9 9 4
-3 8 -9 8 -15z m-786 -98 c46 -89 47 -123 0 -45 -19 32 -44 68 -55 80 -24 26
-24 34 0 34 13 0 30 -21 55 -69z m-225 14 c51 -26 56 -82 12 -126 -34 -34 -93
-40 -123 -12 -27 24 -25 94 5 120 38 35 65 40 106 18z m1717 -73 c-11 -22 -27
-32 -58 -40 -32 -8 -59 -27 -103 -72 -69 -69 -105 -82 -161 -55 -20 9 -45 14
-56 12 -19 -5 -19 -5 -3 13 17 18 18 18 67 -1 71 -28 112 -14 138 47 13 30 25
44 38 44 10 0 23 10 29 23 8 16 18 22 44 22 26 0 38 6 54 31 24 37 33 18 11
-24z m-2296 -7 c21 -25 5 -28 -31 -6 -34 21 -34 21 -8 21 15 0 32 -7 39 -15z
m215 -110 c78 -65 91 -71 236 -110 35 -10 66 -26 84 -45 34 -36 60 -37 116 -9
l41 22 58 -28 c57 -27 61 -28 119 -15 55 12 63 11 87 -6 91 -65 98 -66 113
-24 8 26 14 30 34 25 15 -4 28 -1 36 9 19 23 37 20 85 -15 41 -29 45 -30 90
-18 40 10 50 9 62 -3 13 -13 11 -15 -18 -16 -18 0 -50 -4 -70 -7 -29 -6 -45
-2 -74 16 -32 19 -41 21 -68 11 -18 -7 -39 -12 -48 -12 -9 0 -23 -11 -32 -25
-24 -36 -68 -34 -96 5 -26 36 -73 50 -145 43 -39 -4 -68 -1 -100 11 -42 17
-48 17 -95 1 -63 -21 -119 -13 -154 22 -14 14 -75 43 -142 68 -64 24 -120 47
-123 52 -4 4 -19 25 -34 45 -19 26 -40 41 -67 48 -49 13 -51 20 -6 20 26 0 49
-13 111 -65z"/>
<path d="M2190 5065 c0 -8 4 -15 10 -15 5 0 7 7 4 15 -4 8 -8 15 -10 15 -2 0
-4 -7 -4 -15z"/>
<path d="M3440 4949 c-14 -25 -15 -58 -7 -174 6 -86 7 -90 29 -90 17 0 28 11
45 45 28 58 39 70 63 70 24 0 64 -64 53 -84 -4 -8 -32 -33 -61 -56 -29 -23
-51 -47 -49 -54 3 -7 40 -10 118 -8 126 3 139 9 139 66 0 53 -38 157 -67 188
-28 30 -112 78 -135 78 -7 0 -30 9 -51 20 -47 25 -64 25 -77 -1z m50 -149 c0
-5 -4 -10 -10 -10 -5 0 -10 5 -10 10 0 6 5 10 10 10 6 0 10 -4 10 -10z"/>
<path d="M3252 4887 c-31 -29 -71 -65 -88 -80 -17 -15 -48 -62 -69 -103 -54
-106 -51 -109 100 -108 68 1 121 6 127 12 17 17 42 -35 26 -52 -10 -10 -16 -9
-29 8 l-17 21 -88 -24 c-163 -42 -171 -55 -92 -133 30 -29 66 -71 81 -94 30
-45 69 -68 98 -59 36 12 99 140 99 203 0 34 -15 26 -41 -23 -27 -50 -59 -62
-59 -21 0 13 -7 29 -15 36 -21 18 -19 23 17 43 32 19 32 19 15 -1 -16 -18 -16
-20 -1 -33 14 -11 19 -11 33 6 9 11 28 28 44 38 43 28 37 66 -15 100 -24 15
-60 33 -80 39 -21 6 -38 16 -38 23 0 6 19 25 43 42 l43 30 17 -29 c21 -36 51
-34 55 3 2 14 -11 51 -28 83 -16 32 -30 73 -30 92 0 53 -37 46 -108 -19z m-58
-166 c3 -4 3 -11 0 -14 -8 -8 -34 3 -34 14 0 11 27 12 34 0z m-14 -261 c0 -5
-5 -10 -11 -10 -5 0 -7 5 -4 10 3 6 8 10 11 10 2 0 4 -4 4 -10z m70 -4 c0 -3
-4 -8 -10 -11 -5 -3 -10 -1 -10 4 0 6 5 11 10 11 6 0 10 -2 10 -4z m0 -60 c0
-3 -4 -8 -10 -11 -5 -3 -10 -1 -10 4 0 6 5 11 10 11 6 0 10 -2 10 -4z"/>
<path d="M3502 4525 c2 -12 19 -27 45 -39 l42 -19 -35 -23 c-19 -13 -37 -24
-39 -24 -2 0 -11 12 -19 28 -13 24 -15 25 -16 6 0 -11 8 -28 18 -38 18 -15 20
-15 43 1 13 10 33 23 44 29 31 17 24 36 -19 50 -21 8 -45 22 -53 31 -13 17
-14 17 -11 -2z"/>
<path d="M2652 4421 c-73 -10 -138 -23 -144 -29 -9 -9 -8 -25 4 -64 9 -29 22
-79 28 -111 18 -92 21 -62 3 47 -10 66 -12 101 -5 108 14 14 126 37 182 38 25
0 56 7 70 15 31 17 28 17 -138 -4z"/>
<path d="M3760 4310 c-78 -43 -115 -91 -146 -185 -23 -70 -27 -98 -28 -225 -1
-135 1 -148 23 -189 19 -37 21 -48 12 -64 -11 -16 -10 -18 8 -12 31 10 48 -30
24 -57 -18 -21 -18 -21 5 -9 18 10 27 10 38 0 19 -16 18 -33 -6 -54 -11 -10
-18 -21 -15 -23 3 -3 16 5 30 18 29 27 35 9 9 -28 -9 -13 -14 -25 -11 -28 2
-3 13 9 24 26 17 27 21 29 32 16 10 -12 9 -21 -3 -45 -26 -48 -18 -59 15 -21
l31 35 -6 -30 c-3 -16 -8 -41 -12 -55 -11 -40 12 -11 26 34 11 34 14 37 28 22
13 -13 14 -21 3 -57 -7 -22 -10 -43 -7 -46 5 -5 11 9 31 65 8 23 30 7 27 -19
-2 -21 -1 -22 8 -6 6 9 18 17 27 17 11 0 14 -6 9 -26 -5 -17 -3 -23 4 -19 5 3
10 12 10 19 0 14 42 26 91 26 92 0 225 96 269 195 82 181 63 363 -56 526 -19
26 -34 54 -34 63 0 10 -4 15 -9 12 -17 -11 -33 23 -27 56 5 28 5 30 -4 10 -13
-32 -36 -22 -33 14 2 26 1 27 -8 9 -10 -20 -12 -20 -90 19 -67 33 -91 40 -156
43 -72 4 -82 2 -133 -27z m260 -30 c79 -33 140 -73 140 -94 0 -6 -11 -27 -24
-45 l-24 -32 -7 40 c-7 40 -38 91 -56 91 -13 0 -11 -37 2 -63 9 -15 9 -22 1
-25 -8 -2 -8 -11 -1 -28 13 -36 12 -37 -21 -13 -16 13 -33 20 -36 16 -4 -4 5
-37 19 -74 30 -78 46 -144 47 -190 0 -23 -8 -38 -31 -57 -25 -21 -28 -27 -15
-32 11 -4 33 9 65 39 48 45 102 66 136 53 12 -4 11 -13 -10 -55 -14 -27 -25
-53 -25 -57 0 -5 -35 -27 -78 -50 -167 -88 -222 -119 -222 -129 0 -5 22 -44
49 -85 44 -67 47 -75 30 -78 -11 -2 -41 9 -67 24 -61 35 -197 167 -229 222
l-26 43 27 28 c44 46 190 106 329 136 25 5 28 9 23 33 -4 15 -36 88 -71 162
-35 74 -67 146 -70 158 -6 22 -11 23 -66 20 -32 -1 -59 0 -59 3 0 11 45 48 70
58 49 19 124 12 200 -19z m55 -90 c8 -16 16 -48 18 -71 2 -45 22 -63 34 -32 3
10 9 20 13 23 3 3 13 15 21 27 l16 23 26 -28 c25 -26 26 -29 11 -50 -8 -12
-19 -20 -24 -17 -5 3 -12 0 -16 -6 -5 -8 -3 -9 7 -4 8 4 5 -1 -6 -12 -11 -11
-24 -18 -29 -15 -5 3 -6 0 -3 -5 4 -6 -2 -22 -12 -34 l-20 -24 2 42 c1 23 5
39 11 36 5 -3 6 -1 3 5 -8 12 -44 5 -54 -11 -3 -6 -1 -7 5 -3 19 12 14 -25 -5
-40 -17 -13 -17 -14 1 -7 13 4 17 3 12 -5 -4 -7 -3 -12 2 -12 6 0 6 -14 -1
-35 -13 -43 -25 -29 -29 33 -2 23 -7 42 -12 42 -4 0 -5 7 -2 16 3 8 2 12 -4 9
-6 -3 -10 3 -10 14 0 11 -4 23 -10 26 -5 3 -10 10 -10 16 0 5 5 9 10 9 6 0 10
-6 10 -14 0 -8 9 -17 20 -21 25 -8 46 3 32 17 -6 6 -8 25 -5 43 3 22 0 41 -11
56 -9 13 -16 27 -16 31 0 16 10 7 25 -22z m-318 14 c-3 -3 -12 -4 -19 -1 -8 3
-5 6 6 6 11 1 17 -2 13 -5z m96 -56 c17 -54 23 -63 90 -159 41 -60 49 -99 17
-99 -30 0 -209 -67 -249 -93 -20 -13 -48 -31 -63 -41 l-27 -18 -11 43 c-9 33
-9 75 -1 168 13 148 30 190 81 207 41 14 133 42 141 43 3 1 13 -23 22 -51z
m84 -114 c-6 -6 -67 111 -67 127 1 8 17 -17 36 -55 19 -37 33 -70 31 -72z
m322 17 c8 -5 11 -16 7 -29 -5 -14 0 -27 14 -40 14 -13 18 -22 11 -27 -6 -3
-11 -1 -11 5 0 6 -5 8 -12 4 -7 -5 -8 -3 -3 6 5 8 3 11 -6 8 -8 -3 -28 0 -45
7 -18 7 -36 10 -41 7 -5 -4 7 10 27 30 39 41 39 41 59 29z m-69 -113 c0 10 10
12 37 7 50 -8 58 -18 33 -40 -18 -16 -23 -17 -30 -5 -6 8 -10 10 -10 4 0 -7
-11 -14 -25 -16 -21 -4 -24 -2 -20 12 6 19 -20 36 -30 19 -4 -5 -2 -8 3 -7 6
2 10 0 11 -4 3 -24 -1 -30 -19 -25 -11 3 -18 2 -15 -3 3 -4 -2 -11 -11 -14
-12 -5 -15 -2 -10 10 3 8 6 19 6 24 0 4 15 17 32 28 24 16 35 18 40 9 6 -9 8
-9 8 1z m-28 -317 c-3 -55 0 -103 8 -126 10 -30 10 -40 -1 -51 -16 -15 -135
-48 -152 -41 -7 2 -34 40 -61 82 l-49 78 29 24 c16 13 52 32 81 43 29 11 74
33 100 49 26 17 48 31 49 31 0 0 -2 -40 -4 -89z"/>
<path d="M3770 3755 c-10 -12 -10 -18 0 -29 16 -20 42 -8 38 17 -4 26 -21 32
-38 12z m30 -15 c0 -5 -4 -10 -10 -10 -5 0 -10 5 -10 10 0 6 5 10 10 10 6 0
10 -4 10 -10z"/>
<path d="M3732 3673 c2 -10 10 -18 18 -18 8 0 16 8 18 18 2 12 -3 17 -18 17
-15 0 -20 -5 -18 -17z"/>
<path d="M3800 3670 c0 -5 5 -10 10 -10 6 0 10 5 10 10 0 6 -4 10 -10 10 -5 0
-10 -4 -10 -10z"/>
<path d="M4185 4111 c-3 -5 -2 -12 3 -15 5 -3 9 1 9 9 0 17 -3 19 -12 6z"/>
<path d="M4199 4013 c-13 -16 -12 -17 4 -4 16 13 21 21 13 21 -2 0 -10 -8 -17
-17z"/>
<path d="M3998 3569 c-24 -12 -38 -27 -38 -39 0 -21 40 -94 47 -86 3 3 -4 20
-16 39 -11 19 -21 39 -21 45 0 7 21 23 48 36 26 14 40 25 32 25 -8 0 -32 -9
-52 -20z"/>
<path d="M4594 3938 c-19 -30 10 -256 36 -282 18 -18 33 10 28 53 -2 24 1 41
7 41 5 0 39 3 75 5 85 6 157 -22 102 -39 -10 -4 -35 -24 -57 -46 -32 -33 -36
-41 -25 -55 27 -32 81 -19 186 48 114 73 131 99 98 145 -29 38 -163 108 -244
126 -84 19 -196 21 -206 4z m206 -94 c0 -8 -4 -12 -10 -9 -5 3 -10 10 -10 16
0 5 5 9 10 9 6 0 10 -7 10 -16z"/>
<path d="M4950 3620 c-30 -10 -74 -24 -96 -30 -65 -16 -69 -56 -9 -84 18 -9
50 -16 72 -16 62 0 70 -12 38 -54 -15 -20 -31 -36 -36 -36 -5 0 -35 13 -65 30
-55 29 -74 31 -74 7 0 -25 201 -137 245 -137 38 0 63 29 90 104 35 95 33 187
-4 217 -30 24 -89 24 -161 -1z m80 -170 c0 -5 -4 -10 -10 -10 -5 0 -10 5 -10
10 0 6 5 10 10 10 6 0 10 -4 10 -10z"/>
<path d="M4730 3423 c0 -32 20 -63 69 -111 38 -37 37 -47 -4 -32 -15 6 -49 8
-76 4 -58 -8 -66 3 -46 61 7 22 12 48 9 58 -6 27 -38 20 -52 -12 -6 -16 -27
-53 -46 -82 -39 -61 -45 -116 -16 -141 9 -9 40 -23 67 -32 41 -13 61 -14 105
-6 77 15 184 50 210 70 30 23 17 46 -58 103 -62 48 -132 121 -132 137 0 6 -7
10 -15 10 -10 0 -15 -10 -15 -27z m-78 -195 c-7 -7 -12 -8 -12 -2 0 6 3 14 7
17 3 4 9 5 12 2 2 -3 -1 -11 -7 -17z"/>
<path d="M3408 3228 c-2 -6 -15 -13 -28 -15 -29 -4 -34 -9 -25 -23 4 -7 17 -9
28 -6 12 3 27 0 34 -6 18 -15 21 -9 16 30 -5 32 -18 42 -25 20z"/>
<path d="M3946 2914 c-12 -30 -6 -47 26 -76 37 -33 44 -34 58 -8 15 28 -24
100 -55 100 -13 0 -26 -7 -29 -16z m74 -70 c0 -14 -12 -19 -23 -8 -9 9 4 35
14 28 5 -3 9 -12 9 -20z"/>
<path d="M3934 2816 c-7 -19 3 -36 22 -36 10 0 14 8 12 22 -4 26 -26 36 -34
14z"/>
<path d="M4000 2770 c0 -5 5 -10 10 -10 6 0 10 5 10 10 0 6 -4 10 -10 10 -5 0
-10 -4 -10 -10z"/>
<path d="M3740 2335 c0 -20 4 -26 18 -23 9 2 17 12 17 23 0 11 -8 21 -17 23
-14 3 -18 -3 -18 -23z m30 1 c0 -3 -4 -8 -10 -11 -5 -3 -10 -1 -10 4 0 6 5 11
10 11 6 0 10 -2 10 -4z"/>
<path d="M3685 2330 c-3 -5 1 -10 9 -10 9 0 16 5 16 10 0 6 -4 10 -9 10 -6 0
-13 -4 -16 -10z"/>
<path d="M3702 2301 c-16 -10 -12 -53 5 -58 6 -2 16 4 22 15 13 24 -7 56 -27
43z"/>
<path d="M4495 3013 c-73 -26 -112 -49 -57 -34 17 5 35 12 39 14 4 3 32 12 60
20 53 16 53 16 85 -11 18 -16 47 -61 70 -111 22 -46 41 -81 44 -79 10 11 -76
177 -106 201 -38 33 -46 33 -135 0z"/>
<path d="M1810 2693 c0 -13 29 -38 35 -31 3 3 -4 13 -15 23 -11 10 -20 13 -20
8z"/>
<path d="M1870 2630 c0 -5 5 -10 11 -10 5 0 7 5 4 10 -3 6 -8 10 -11 10 -2 0
-4 -4 -4 -10z"/>
<path d="M1765 2598 c4 -18 11 -40 16 -48 7 -12 9 -11 9 5 1 19 1 19 14 3 19
-26 30 -22 12 4 -9 12 -16 30 -16 39 0 14 -19 29 -37 29 -2 0 -1 -15 2 -32z"/>
<path d="M3004 2786 c-86 -27 -210 -130 -249 -206 -31 -61 -43 -109 -54 -217
-14 -132 0 -219 51 -321 49 -99 119 -174 215 -231 125 -74 242 -79 367 -17
151 74 228 178 241 323 l5 58 -15 -54 c-23 -82 -53 -143 -87 -178 -49 -50 -62
-40 -25 19 27 43 32 61 31 108 -1 31 -8 78 -17 106 -18 59 -40 285 -35 369 l3
60 44 -64 c61 -88 90 -169 101 -276 l9 -90 -4 90 c-7 208 -132 412 -304 498
-67 34 -81 37 -155 36 -44 0 -99 -6 -122 -13z m122 -24 c-7 -12 -95 -50 -142
-62 -29 -7 -52 -22 -75 -50 -19 -22 -56 -65 -82 -96 -55 -63 -65 -85 -79 -171
-12 -77 10 -205 53 -308 26 -62 40 -80 114 -145 104 -93 167 -121 283 -128 45
-2 81 -7 78 -9 -17 -18 -93 -22 -156 -9 -153 32 -275 118 -334 236 -56 113
-70 197 -57 343 9 102 15 131 41 184 49 99 174 195 278 213 65 11 84 11 78 2z
m-1 -51 c15 -6 11 -9 -22 -14 -23 -4 -77 -25 -119 -47 -43 -22 -80 -37 -83
-34 -12 12 69 74 96 74 16 1 42 7 58 15 35 16 43 16 70 6z m189 -61 c37 -12
70 -29 75 -39 6 -10 15 -74 21 -143 6 -68 15 -151 20 -184 6 -32 10 -61 10
-62 0 -2 -14 8 -31 23 -102 85 -193 86 -259 2 -17 -22 -30 -27 -63 -27 -81 0
-79 -2 -137 163 -29 84 -53 163 -54 176 -1 20 9 30 59 55 121 60 240 72 359
36z m-417 -186 c19 -43 44 -117 57 -163 13 -46 29 -88 36 -95 6 -6 36 -10 67
-9 l55 2 -8 -32 c-15 -57 -9 -130 15 -175 25 -50 89 -99 140 -108 20 -4 44
-11 55 -16 17 -9 17 -12 -10 -34 -21 -17 -42 -23 -75 -24 l-46 0 -22 58 c-58
160 -207 308 -329 328 -21 3 -45 10 -53 15 -18 11 -25 160 -10 215 13 48 67
127 83 122 6 -2 27 -40 45 -84z m453 -259 c54 -28 72 -159 30 -210 -16 -19
-83 -19 -119 0 -16 8 -31 25 -35 37 -11 41 -6 108 9 138 26 50 64 62 115 35z
m-447 -117 c108 -56 180 -127 201 -198 9 -29 14 -55 11 -58 -12 -12 -32 10
-43 45 -7 22 -21 48 -32 58 -11 10 -20 28 -20 41 0 24 -51 74 -76 74 -8 0 -35
11 -61 25 -27 13 -56 27 -65 29 -20 6 -25 26 -7 26 6 0 48 -19 92 -42z m517
-198 c0 -13 -61 -51 -72 -44 -17 10 -7 30 20 41 36 14 52 15 52 3z"/>
<path d="M3332 2594 c27 -14 34 -28 42 -89 2 -16 2 -6 1 24 -2 55 -20 81 -54
81 -10 -1 -5 -7 11 -16z"/>
<path d="M2933 2535 c4 -11 18 -54 32 -95 14 -41 30 -93 35 -115 5 -22 16 -49
23 -59 14 -20 94 -39 103 -25 7 11 -24 22 -78 28 -3 1 -25 56 -48 124 -22 67
-48 131 -57 142 l-15 20 5 -20z"/>
<path d="M5020 2620 c0 -5 11 -10 25 -10 14 0 25 5 25 10 0 6 -11 10 -25 10
-14 0 -25 -4 -25 -10z"/>
<path d="M5015 2590 c3 -5 15 -10 26 -10 11 0 17 5 14 10 -3 6 -15 10 -26 10
-11 0 -17 -4 -14 -10z"/>
<path d="M5000 2551 c0 -5 7 -11 15 -15 8 -3 15 -1 15 3 0 5 -7 11 -15 15 -8
3 -15 1 -15 -3z"/>
<path d="M4980 2521 c0 -5 5 -13 10 -16 6 -3 10 -2 10 4 0 5 -4 13 -10 16 -5
3 -10 2 -10 -4z"/>
<path d="M4955 2480 c3 -5 8 -10 11 -10 2 0 4 5 4 10 0 6 -5 10 -11 10 -5 0
-7 -4 -4 -10z"/>
<path d="M4520 2540 c-9 -6 -10 -10 -3 -10 6 0 15 5 18 10 8 12 4 12 -15 0z"/>
<path d="M4405 2500 c-13 -5 -14 -9 -5 -9 8 0 24 4 35 9 13 5 14 9 5 9 -8 0
-24 -4 -35 -9z"/>
<path d="M2261 2204 c0 -11 3 -14 6 -6 3 7 2 16 -1 19 -3 4 -6 -2 -5 -13z"/>
<path d="M4566 2403 c-3 -4 -6 -15 -6 -25 0 -24 33 -21 38 3 3 17 -21 33 -32
22z"/>
<path d="M4490 2369 c0 -5 5 -7 10 -4 6 3 10 8 10 11 0 2 -4 4 -10 4 -5 0 -10
-5 -10 -11z"/>
<path d="M4560 2299 c0 -5 5 -7 10 -4 6 3 10 8 10 11 0 2 -4 4 -10 4 -5 0 -10
-5 -10 -11z"/>
<path d="M4017 1884 c-1 -2 -45 -8 -97 -15 -134 -16 -158 -45 -104 -124 14
-21 23 -43 20 -50 -12 -33 98 -99 184 -109 71 -9 88 4 104 75 15 64 12 113
-10 147 -15 22 -17 23 -32 9 -13 -14 -14 -24 -5 -62 10 -44 10 -45 -11 -39
-11 3 -25 10 -31 15 -5 5 -16 9 -25 9 -9 0 -24 6 -34 13 -17 13 -14 16 37 45
50 28 86 66 74 78 -5 5 -65 12 -70 8z m-102 -124 c3 -5 -1 -10 -9 -10 -9 0
-16 5 -16 10 0 6 4 10 9 10 6 0 13 -4 16 -10z m31 -56 c-4 -9 -9 -15 -11 -12
-3 3 -3 13 1 22 4 9 9 15 11 12 3 -3 3 -13 -1 -22z m64 -23 c0 -6 -4 -13 -10
-16 -5 -3 -10 1 -10 9 0 9 5 16 10 16 6 0 10 -4 10 -9z"/>
<path d="M3805 1644 c37 -34 115 -80 115 -70 0 3 -19 17 -43 30 -24 14 -54 37
-67 51 -13 14 -28 25 -34 25 -6 -1 7 -17 29 -36z"/>
<path d="M3977 1549 c7 -7 15 -10 18 -7 3 3 -2 9 -12 12 -14 6 -15 5 -6 -5z"/>
<path d="M2415 1692 c-45 -15 -50 -20 -53 -50 -2 -18 2 -58 8 -89 10 -45 20
-64 57 -99 25 -24 57 -47 71 -51 15 -3 45 -14 67 -24 118 -54 185 14 149 149
-13 47 -21 62 -33 60 -11 -2 -17 -17 -19 -51 -3 -51 -7 -54 -36 -32 -11 8 -28
15 -38 15 -10 0 -21 7 -25 15 -3 9 -18 22 -34 31 -16 8 -29 19 -29 24 0 5 21
21 48 35 66 35 85 52 79 70 -9 21 -145 20 -212 -3z m35 -166 c0 -3 -4 -8 -10
-11 -5 -3 -10 -1 -10 4 0 6 5 11 10 11 6 0 10 -2 10 -4z m70 -70 c0 -3 -4 -8
-10 -11 -5 -3 -10 -1 -10 4 0 6 5 11 10 11 6 0 10 -2 10 -4z m140 -18 c0 -18
-2 -20 -9 -8 -6 8 -7 18 -5 22 9 14 14 9 14 -14z"/>
<path d="M2813 1703 c-37 -14 21 -75 87 -93 38 -10 38 -11 29 -43 -5 -17 -9
-33 -9 -34 0 -2 -8 -3 -17 -3 -9 0 -27 -9 -39 -21 -20 -19 -22 -19 -39 -3 -13
13 -15 27 -10 60 5 37 3 44 -21 63 -58 46 -95 13 -63 -58 10 -24 23 -70 29
-104 11 -68 47 -117 87 -117 36 0 94 43 167 125 115 128 117 189 6 214 -52 12
-189 21 -207 14z m207 -113 c0 -5 -7 -7 -15 -4 -8 4 -15 8 -15 10 0 2 7 4 15
4 8 0 15 -4 15 -10z m-70 -102 c0 -6 -6 -5 -15 2 -8 7 -15 14 -15 16 0 2 7 1
15 -2 8 -4 15 -11 15 -16z"/>
<path d="M1556 1889 c-4 -10 -2 -36 4 -60 35 -131 191 -249 290 -221 l35 10
-50 1 c-71 2 -142 38 -191 97 -52 63 -64 86 -73 143 -6 31 -10 41 -15 30z"/>
<path d="M1720 1865 c-7 -8 -8 -15 -2 -15 5 0 15 7 22 15 7 8 8 15 2 15 -5 0
-15 -7 -22 -15z"/>
<path d="M1745 1839 c-4 -6 -5 -13 -2 -16 7 -7 27 6 27 18 0 12 -17 12 -25 -2z"/>
<path d="M1770 1810 c-8 -5 -11 -12 -7 -16 4 -4 13 -2 19 4 15 15 7 24 -12 12z"/>
<path d="M1795 1770 c-3 -5 -1 -10 4 -10 6 0 11 5 11 10 0 6 -2 10 -4 10 -3 0
-8 -4 -11 -10z"/>
<path d="M4765 1729 c-4 -6 -5 -12 -2 -15 2 -3 7 2 10 11 7 17 1 20 -8 4z"/>
<path d="M4673 1725 c-10 -10 -9 -14 2 -19 17 -6 26 5 17 21 -5 8 -11 7 -19
-2z"/>
<path d="M2035 1499 c-4 -6 -5 -12 -2 -15 2 -3 7 2 10 11 7 17 1 20 -8 4z"/>
<path d="M2216 1308 c3 -5 10 -6 15 -3 13 9 11 12 -6 12 -8 0 -12 -4 -9 -9z"/>
<path d="M2009 1217 c6 -8 7 -18 3 -22 -4 -5 -1 -5 6 -1 10 6 10 11 1 22 -6 8
-14 14 -16 14 -3 0 0 -6 6 -13z"/>
<path d="M1230 5446 c-95 -50 -367 -304 -508 -475 -281 -341 -452 -738 -452
-1049 0 -67 2 -76 28 -102 32 -32 41 -33 317 -55 267 -21 912 -127 1155 -191
52 -13 187 -47 300 -75 113 -28 234 -59 270 -69 36 -10 94 -24 130 -31 36 -6
77 -18 91 -25 15 -7 66 -16 114 -19 60 -4 98 -11 119 -24 48 -29 206 -37 206
-11 0 4 -23 32 -52 61 -32 34 -65 84 -89 134 -34 73 -69 121 -102 142 -21 13
-120 132 -194 233 -38 52 -88 116 -110 142 -23 26 -67 87 -99 135 -82 123
-317 433 -433 572 -201 241 -289 349 -360 446 -84 114 -247 285 -270 285 -9
-1 -36 -12 -61 -24z m126 -63 c26 -32 70 -82 97 -111 l50 -53 -51 -35 c-28
-19 -82 -62 -118 -97 -42 -38 -62 -52 -54 -37 25 48 72 98 131 140 32 24 57
46 54 48 -7 7 -73 -40 -119 -85 -36 -35 -54 -60 -135 -190 -14 -23 -36 -44
-48 -47 -13 -4 -30 -17 -39 -31 -10 -15 -26 -25 -40 -25 -19 0 -24 -5 -24 -24
0 -32 -33 -54 -92 -62 -65 -9 -82 -30 -75 -91 3 -27 8 -55 12 -64 4 -10 -7
-32 -30 -58 -28 -34 -35 -52 -35 -84 0 -61 -17 -110 -46 -138 -39 -36 -76 -93
-129 -199 -27 -52 -60 -108 -74 -123 -22 -24 -26 -37 -26 -101 -1 -53 -6 -81
-19 -101 -17 -26 -20 -27 -78 -21 -34 4 -85 16 -114 27 -48 18 -53 23 -59 57
-9 59 30 300 69 416 58 175 192 426 307 576 73 96 426 452 515 519 90 68 108
67 170 -6z m255 -310 c150 -195 289 -363 315 -379 23 -15 66 -71 193 -244 34
-47 81 -110 104 -140 24 -30 78 -102 120 -160 43 -58 104 -139 137 -180 33
-41 74 -95 91 -120 18 -25 60 -78 93 -119 43 -54 56 -76 46 -79 -8 -3 -38 -28
-67 -57 -39 -40 -56 -67 -69 -111 -10 -33 -21 -63 -24 -67 -4 -4 -36 -1 -71 6
-35 8 -118 26 -184 41 -66 14 -199 48 -295 75 -96 27 -256 65 -355 84 -343 67
-500 96 -590 107 -49 6 -128 17 -175 25 -47 7 -127 17 -177 20 l-93 7 0 77 c1
70 3 78 31 109 18 20 42 35 60 37 17 2 37 9 45 16 18 15 18 9 -2 -57 -17 -60
-14 -84 11 -84 14 0 15 -8 9 -45 -6 -41 -4 -45 15 -45 11 0 30 13 43 30 12 17
28 30 36 30 8 0 16 9 19 20 3 11 12 20 19 20 23 0 27 26 9 60 -24 46 -10 49
33 7 32 -32 44 -37 84 -37 40 0 49 -4 71 -33 74 -98 213 -160 350 -158 74 1
184 24 228 47 15 8 36 14 46 14 13 -1 9 -6 -12 -17 -41 -21 -65 -43 -65 -60 0
-18 31 -16 60 4 26 18 25 21 4 -32 -8 -20 20 -20 36 0 7 8 16 15 21 15 5 0 9
-7 9 -15 0 -22 13 -19 67 15 42 26 84 40 196 64 38 9 34 22 -11 30 -24 3 -53
19 -78 42 -21 19 -32 33 -24 31 75 -23 214 -57 253 -63 47 -6 49 -8 42 -33 -3
-14 -9 -51 -12 -83 -4 -47 -1 -63 18 -98 26 -46 95 -96 145 -106 36 -7 109 14
160 45 36 22 74 93 74 140 0 43 -39 108 -99 164 -55 51 -99 65 -161 49 -31 -8
-40 -7 -44 5 -13 34 -28 203 -22 259 6 58 5 61 -29 102 -49 57 -167 114 -245
120 l-59 4 -55 112 c-47 97 -62 119 -113 161 -32 26 -79 57 -105 68 -52 21
-55 28 -33 67 21 37 18 114 -5 160 -11 22 -42 56 -68 75 -52 38 -99 45 -155
22 -39 -17 -104 -87 -113 -122 -6 -26 -1 -92 11 -130 5 -16 -2 -24 -32 -40
-67 -36 -132 -94 -187 -168 -74 -99 -86 -126 -111 -252 l-22 -110 -12 43 c-9
32 -9 52 -2 75 14 40 6 47 -12 10 -18 -33 -56 -70 -112 -107 -46 -30 -65 -34
-43 -8 8 9 31 44 50 77 31 52 36 71 41 145 5 80 7 86 38 111 32 26 32 27 21
72 -17 64 -15 84 8 107 13 13 33 20 61 20 32 0 47 6 70 30 17 16 28 34 24 40
-3 5 3 10 15 10 11 0 31 11 43 24 12 13 32 26 45 30 12 4 56 49 97 100 68 85
112 127 190 183 16 12 33 21 36 20 3 -1 48 -57 100 -124z m-92 -138 c17 -16
25 -38 28 -72 4 -42 2 -53 -18 -75 -13 -15 -33 -29 -45 -32 -44 -13 -104 66
-104 136 0 73 81 98 139 43z m-117 -251 c22 -11 48 -15 85 -12 63 5 79 -6 63
-46 -15 -40 -13 -40 21 -12 35 30 58 32 104 10 89 -42 158 -136 171 -234 6
-49 6 -49 -32 -72 l-39 -23 34 -5 c30 -4 36 -10 44 -40 15 -59 -2 -137 -54
-250 -25 -56 -45 -82 -83 -112 -98 -78 -161 -96 -188 -56 l-15 22 -14 -29
c-14 -29 -18 -30 -74 -29 -77 2 -214 63 -269 120 -56 58 -96 119 -96 149 0 14
-7 42 -15 62 -18 42 -18 85 -1 133 12 32 16 35 50 32 38 -4 52 16 17 25 -11 3
-24 18 -30 33 -7 23 -5 37 13 72 13 23 31 66 40 95 10 28 27 64 38 78 19 25
143 90 196 104 2 1 17 -6 34 -15z m-593 -366 c-7 -13 -36 -60 -66 -106 -30
-46 -64 -109 -75 -140 -11 -31 -33 -71 -49 -87 -25 -27 -29 -38 -29 -90 0 -75
-8 -105 -27 -105 -13 0 -13 3 1 25 11 17 16 47 16 98 0 68 2 75 29 101 16 16
32 39 35 52 11 41 106 208 138 242 38 38 43 40 27 10z m1293 -5 c33 -9 73 -29
96 -49 l39 -33 6 -118 c4 -65 14 -145 21 -178 9 -36 11 -64 6 -69 -15 -15
-109 -19 -186 -8 -42 6 -101 24 -147 45 l-75 35 29 86 c28 79 55 267 42 289
-19 32 54 32 169 0z m-1218 -68 c-4 -8 -10 -15 -15 -15 -5 0 -8 -3 -7 -7 4
-12 -31 -58 -38 -50 -4 3 -15 2 -24 -3 -20 -10 -22 3 -6 29 7 11 10 11 17 0 7
-11 9 -11 9 3 0 9 15 25 33 37 39 25 38 25 31 6z m40 -7 c2 -7 10 -30 20 -50
9 -21 18 -54 19 -75 2 -21 9 -48 15 -60 9 -15 9 -24 1 -28 -11 -8 13 -51 40
-72 14 -10 12 -11 -10 -9 -37 3 -73 31 -65 51 3 9 2 13 -4 10 -5 -3 -18 3 -29
14 -11 11 -23 16 -27 13 -4 -4 -4 -2 0 5 3 6 1 15 -5 19 -7 4 -9 3 -5 -4 3 -6
2 -13 -3 -16 -10 -7 0 -60 18 -94 9 -17 9 -21 -2 -16 -8 3 -22 -7 -32 -22 -9
-14 -11 -23 -4 -19 8 6 10 4 5 -4 -5 -7 -15 -10 -23 -7 -8 3 -11 2 -8 -3 3 -5
-6 -22 -20 -38 l-25 -28 6 45 c3 25 7 50 9 56 2 6 -6 9 -20 7 -20 -4 -22 -2
-18 21 3 14 8 24 12 22 3 -2 6 11 7 30 0 24 7 40 22 50 12 8 22 21 22 27 0 7
-5 4 -11 -7 -9 -15 -13 -16 -20 -5 -7 11 -12 12 -28 2 -13 -8 -22 -9 -26 -3
-4 7 -13 6 -26 0 -31 -17 -22 3 24 52 43 45 87 76 87 61 0 -4 -18 -26 -40 -47
-22 -22 -40 -46 -40 -55 0 -10 11 -4 34 18 21 21 39 30 47 26 7 -5 10 -4 5 3
-3 6 -2 13 3 16 10 6 4 -70 -6 -87 -3 -5 -7 -28 -9 -51 -3 -22 -6 -55 -8 -73
-2 -21 0 -30 8 -27 7 3 13 21 14 42 3 60 13 112 22 117 5 3 7 12 3 20 -3 8 -1
15 5 15 5 0 7 11 5 24 -9 45 14 35 27 -13 15 -57 45 -83 52 -46 4 16 1 22 -8
18 -18 -7 -35 39 -39 102 -3 62 20 120 29 73z m-188 -106 c-14 -14 -16 -14
-16 -1 0 20 23 44 29 28 2 -6 -4 -18 -13 -27z m1172 -282 c34 -33 57 -60 51
-60 -49 0 -148 82 -127 107 6 7 12 13 13 13 1 0 30 -27 63 -60z m-68 -5 c26
-27 19 -31 -29 -14 -25 9 -29 14 -20 25 16 19 22 18 49 -11z m-29 -32 l42 -16
-43 -13 c-39 -11 -45 -11 -56 4 -20 25 -18 30 13 41 2 1 21 -7 44 -16z m144
-43 c-3 -5 -14 -10 -23 -10 -9 0 -45 -16 -79 -34 -44 -24 -63 -30 -63 -20 0
17 -31 18 -50 2 -8 -7 -6 -3 4 9 16 20 17 23 3 29 -8 3 -29 -2 -46 -10 -35
-19 -45 -20 -36 -5 7 10 26 19 74 34 16 5 21 4 17 -4 -9 -14 0 -13 44 4 42 16
164 20 155 5z m454 -5 c39 -20 81 -72 81 -100 0 -67 -46 -104 -104 -85 -70 23
-101 88 -75 157 17 46 48 55 98 28z m386 -205 c39 -50 75 -115 75 -134 0 -3
-7 -3 -15 0 -25 10 -63 -5 -70 -26 -4 -11 -15 -20 -26 -20 -19 0 -19 1 1 23
12 12 31 37 42 55 17 28 18 37 8 62 -6 16 -21 37 -31 46 -19 17 -21 17 -56 -1
-48 -26 -92 -82 -100 -128 -6 -40 -26 -45 -31 -8 -4 26 21 93 48 132 19 25 72
58 97 59 6 0 33 -27 58 -60z"/>
<path d="M1872 4639 c2 -6 8 -10 13 -10 5 0 11 4 13 10 2 6 -4 11 -13 11 -9 0
-15 -5 -13 -11z"/>
<path d="M1912 4588 c-17 -17 -15 -32 8 -53 36 -33 78 9 45 45 -21 23 -36 25
-53 8z"/>
<path d="M2090 3750 c0 -5 5 -10 10 -10 6 0 10 5 10 10 0 6 -4 10 -10 10 -5 0
-10 -4 -10 -10z"/>
<path d="M2075 3691 c-8 -15 3 -31 21 -31 9 0 14 7 12 17 -4 20 -24 28 -33 14z"/>
<path d="M2000 3665 c-16 -20 -5 -47 31 -74 34 -25 57 -25 73 3 9 14 7 20 -8
30 -10 6 -28 21 -39 34 -24 26 -40 28 -57 7z"/>
<path d="M1885 3630 c-8 -13 3 -30 20 -30 20 0 30 21 14 31 -18 11 -26 11 -34
-1z"/>
<path d="M1365 4638 c-45 -26 -135 -100 -135 -111 0 -7 -18 -38 -40 -71 -44
-64 -49 -95 -22 -118 28 -25 151 -70 172 -63 35 11 22 36 -30 58 -61 25 -66
47 -12 47 26 0 45 7 57 20 27 30 35 25 35 -24 0 -52 20 -75 43 -51 18 17 33
83 42 180 8 89 -13 139 -60 142 -16 2 -39 -2 -50 -9z m-15 -154 c0 -8 -4 -12
-10 -9 -5 3 -10 10 -10 16 0 5 5 9 10 9 6 0 10 -7 10 -16z"/>
<path d="M1552 4573 c-20 -8 -34 -43 -48 -123 -8 -41 -14 -78 -14 -82 0 -17
22 -6 59 27 41 38 61 44 61 20 0 -8 7 -15 15 -15 34 0 13 -37 -40 -69 -79 -48
-72 -63 19 -40 56 14 146 97 146 134 0 41 -13 57 -88 108 -66 45 -82 51 -110
40z"/>
<path d="M1161 4477 c-54 -71 -61 -105 -28 -143 14 -16 28 -26 32 -22 4 3 -3
16 -14 27 -29 29 -26 61 7 107 32 43 55 84 49 84 -3 0 -23 -24 -46 -53z"/>
<path d="M1595 4276 c-5 -2 -22 -7 -37 -10 -48 -11 -32 -74 22 -91 23 -7 24
-18 6 -60 l-13 -30 -16 38 c-11 25 -22 37 -36 37 -25 0 -25 -5 -7 -59 8 -22
18 -69 22 -103 11 -97 61 -133 127 -89 36 23 71 75 114 168 63 137 35 192
-105 199 -37 2 -71 2 -77 0z m85 -96 c0 -5 -5 -10 -11 -10 -5 0 -7 5 -4 10 3
6 8 10 11 10 2 0 4 -4 4 -10z m-23 -115 c9 -25 -4 -29 -17 -6 -7 15 -7 21 0
21 6 0 13 -7 17 -15z"/>
<path d="M1123 4229 c-21 -21 -15 -57 23 -164 37 -105 73 -155 110 -155 12 0
27 -7 34 -15 11 -13 10 -14 -5 -9 -33 13 -6 -15 35 -36 68 -35 96 -26 140 40
13 19 25 37 27 40 2 2 19 -13 37 -34 28 -34 38 -39 74 -39 30 0 52 8 77 28 48
36 39 42 -16 10 -24 -13 -54 -25 -67 -25 -35 0 -80 55 -84 103 -3 40 -28 66
-28 30 0 -71 -54 -154 -98 -152 -23 2 -24 2 -5 6 30 6 50 41 68 115 17 73 20
194 5 203 -20 12 -38 -16 -45 -68 -9 -65 -13 -72 -33 -54 -10 8 -44 22 -77 32
-63 18 -63 17 -10 53 22 15 65 74 60 83 -4 5 -20 9 -38 9 -18 0 -63 2 -102 6
-51 4 -73 2 -82 -7z m157 -194 c-7 -9 -15 -13 -17 -11 -7 7 7 26 19 26 6 0 6
-6 -2 -15z"/>
<path d="M2201 4034 c0 -11 3 -14 6 -6 3 7 2 16 -1 19 -3 4 -6 -2 -5 -13z"/>
<path d="M2216 3948 l4 -67 -32 -6 c-18 -3 -61 1 -95 8 -34 7 -60 10 -57 6 6
-11 134 -32 169 -28 34 4 34 8 16 99 l-10 55 5 -67z"/>
<path d="M835 4210 c3 -5 8 -10 11 -10 2 0 4 5 4 10 0 6 -5 10 -11 10 -5 0 -7
-4 -4 -10z"/>
<path d="M3474 5265 c-24 -37 -6 -75 35 -75 54 0 80 50 43 83 -27 24 -59 21
-78 -8z"/>
<path d="M2550 5225 c-27 -32 19 -80 49 -51 12 12 12 20 3 41 -13 28 -33 32
-52 10z"/>
<path d="M2466 5202 c-8 -13 11 -35 23 -28 16 10 14 36 -3 36 -8 0 -17 -4 -20
-8z"/>
<path d="M3576 5173 c-4 -9 0 -23 9 -32 13 -14 17 -14 30 0 19 19 10 49 -15
49 -10 0 -21 -8 -24 -17z m34 -13 c0 -5 -4 -10 -10 -10 -5 0 -10 5 -10 10 0 6
5 10 10 10 6 0 10 -4 10 -10z"/>
<path d="M4202 5157 c-5 -7 -12 -29 -15 -49 -7 -49 21 -90 50 -72 18 12 21 46
8 100 -6 26 -30 37 -43 21z m28 -32 c0 -8 -7 -15 -15 -15 -8 0 -15 7 -15 15 0
8 7 15 15 15 8 0 15 -7 15 -15z"/>
<path d="M2505 5094 c-93 -24 -206 -91 -248 -147 -47 -62 -77 -134 -77 -185 0
-86 61 -169 137 -188 13 -4 44 1 68 11 l45 17 -20 25 c-11 14 -18 28 -15 31 8
9 33 -18 75 -84 29 -43 49 -64 62 -64 27 0 175 78 182 95 3 8 -18 60 -45 117
-32 64 -43 96 -32 85 24 -21 36 -21 72 -2 35 18 65 86 57 130 -9 45 -62 113
-108 136 -40 20 -117 32 -153 23z m115 -44 c11 -6 20 -13 20 -16 0 -2 -10 0
-21 7 -13 6 -51 9 -93 7 -62 -3 -79 -8 -130 -41 -70 -46 -100 -79 -143 -159
-26 -47 -33 -72 -33 -116 0 -69 -16 -53 -19 18 -1 35 6 65 26 107 29 61 116
158 133 148 6 -3 10 -1 10 5 0 6 24 22 53 36 43 20 63 23 114 20 34 -3 71 -10
83 -16z m37 -50 c29 -17 57 -39 63 -49 15 -30 12 -82 -7 -103 -22 -24 -33 -23
-33 5 0 59 -82 81 -172 47 -106 -40 -209 -167 -194 -241 3 -16 4 -29 2 -29
-34 0 -66 51 -66 103 0 68 101 219 178 267 39 25 57 30 112 30 54 0 74 -5 117
-30z m-66 -155 c9 -28 30 -81 48 -119 35 -78 44 -136 11 -76 -21 38 -26 28
-10 -16 17 -44 -5 -55 -36 -19 l-25 30 17 -34 c15 -33 15 -35 -2 -48 -10 -7
-23 -13 -30 -13 -23 0 -62 41 -79 82 -20 52 -52 88 -76 88 -10 0 -23 9 -29 20
-21 39 46 115 128 145 55 20 65 15 83 -40z m-216 -143 c-8 -8 -25 10 -19 20 4
6 9 5 15 -3 4 -7 6 -15 4 -17z"/>
<path d="M4311 5076 c-10 -12 -8 -17 8 -25 22 -12 37 0 27 24 -7 19 -20 19
-35 1z m24 -6 c3 -5 1 -10 -4 -10 -6 0 -11 5 -11 10 0 6 2 10 4 10 3 0 8 -4
11 -10z"/>
<path d="M4336 4989 l-13 -30 -17 25 c-22 34 -34 33 -51 -6 -8 -20 -20 -33
-32 -33 -15 0 -19 -11 -23 -75 -6 -79 -29 -135 -62 -151 -10 -5 -26 -13 -35
-17 -38 -19 -24 -31 34 -29 l58 2 -2 -40 c-6 -84 32 -135 69 -95 13 14 31 20
58 20 22 0 40 -3 40 -7 0 -5 -16 -19 -35 -33 -43 -31 -105 -108 -105 -130 0
-9 30 -42 66 -73 l65 -57 37 15 c20 9 51 27 69 41 18 14 38 22 43 19 16 -10
12 -43 -7 -53 -15 -9 -12 -13 18 -31 68 -41 138 -19 202 67 34 45 42 63 45
110 5 76 -25 156 -84 220 -50 57 -54 72 -19 72 42 0 25 49 -25 75 -18 9 -30
24 -30 35 0 25 -29 40 -74 40 -30 0 -36 4 -36 21 0 20 -4 21 -42 15 -24 -4
-53 -9 -65 -12 -22 -6 -22 -6 -6 34 28 72 -11 131 -41 61z m34 -14 c0 -13 -8
-40 -17 -60 -9 -19 -14 -38 -10 -41 3 -4 26 -1 51 5 55 13 79 14 71 2 -8 -14
15 -25 65 -31 35 -4 46 -9 48 -25 1 -11 21 -30 42 -43 49 -28 51 -48 8 -55
-23 -3 -48 3 -81 20 -51 25 -59 41 -13 24 14 -6 26 -7 26 -2 0 16 -31 21 -131
21 -81 0 -107 -4 -140 -21 -23 -11 -42 -19 -44 -17 -2 2 13 36 32 76 20 40 33
75 30 78 -3 4 -18 -20 -32 -52 -30 -68 -70 -124 -89 -124 -10 0 -9 10 6 40 12
23 20 63 21 97 2 51 4 58 22 58 14 0 23 10 30 33 11 39 18 40 33 7 15 -33 31
-32 45 5 14 36 27 39 27 5z m147 -225 c112 -68 161 -113 193 -174 18 -37 33
-84 36 -117 5 -48 2 -60 -28 -108 -37 -61 -67 -86 -117 -101 -41 -12 -37 -7
20 23 34 17 51 35 72 77 25 49 28 63 24 126 -3 61 -9 78 -41 127 -50 75 -127
123 -239 151 -19 4 -26 3 -22 -4 3 -5 16 -10 28 -10 29 0 118 -42 163 -76 20
-15 49 -50 65 -78 24 -43 29 -62 29 -121 -1 -123 -54 -195 -145 -195 -32 1
-36 3 -23 11 31 17 40 46 28 84 -18 55 -35 62 -68 30 -28 -29 -110 -85 -124
-85 -5 0 20 28 54 61 65 63 58 62 -28 -3 -27 -21 -55 -38 -62 -38 -21 0 -72
42 -72 59 1 25 67 109 110 139 22 15 39 33 40 40 0 26 -39 52 -80 52 -40 0
-62 -14 -86 -55 -17 -31 -34 -8 -34 47 0 64 27 107 90 143 39 22 54 25 112 22
46 -3 78 -11 105 -27z m-297 -44 c-6 -8 -19 -12 -27 -9 -14 6 -14 8 3 14 30
12 37 10 24 -5z"/>
<path d="M4374 4501 c-28 -22 -59 -52 -69 -68 -15 -23 -9 -20 28 15 26 23 63
50 82 59 19 9 35 20 35 25 0 17 -27 6 -76 -31z"/>
<path d="M4415 4480 c-10 -11 -15 -20 -11 -20 4 0 19 9 33 20 17 13 20 20 11
20 -8 0 -23 -9 -33 -20z"/>
<path d="M2840 4651 c0 -6 5 -13 10 -16 6 -3 10 1 10 9 0 9 -4 16 -10 16 -5 0
-10 -4 -10 -9z"/>
<path d="M2774 4639 c-10 -17 13 -36 27 -22 12 12 4 33 -11 33 -5 0 -12 -5
-16 -11z"/>
<path d="M2814 4585 c-9 -22 22 -53 37 -38 15 15 7 47 -14 51 -9 2 -20 -4 -23
-13z"/>
<path d="M4062 4488 c-17 -17 -15 -32 7 -52 40 -37 82 5 45 45 -20 22 -35 24
-52 7z"/>
<path d="M4921 4410 c-45 -11 -81 -39 -109 -86 -20 -34 -22 -48 -18 -109 8
-113 57 -155 179 -155 115 0 157 30 178 129 18 87 -22 175 -97 211 -42 21 -76
23 -133 10z m109 -106 c68 -27 81 -85 31 -135 -43 -42 -97 -41 -145 5 -28 26
-36 41 -36 70 0 70 62 95 150 60z"/>
<path d="M5194 3886 c-15 -40 21 -80 54 -60 37 24 21 74 -25 74 -13 0 -26 -6
-29 -14z"/>
<path d="M5286 3532 c-2 -4 -1 -14 4 -22 7 -11 12 -12 21 -3 6 6 8 16 5 22 -8
13 -23 14 -30 3z"/>
<path d="M5316 3474 c-22 -22 -20 -50 6 -68 12 -9 26 -16 30 -16 13 0 48 39
48 54 0 20 -28 46 -50 46 -10 0 -26 -7 -34 -16z"/>
<path d="M5244 3386 c-10 -26 4 -48 28 -44 17 2 23 10 23 28 0 18 -6 26 -23
28 -13 2 -25 -3 -28 -12z m38 -21 c0 -5 -5 -11 -11 -13 -6 -2 -11 4 -11 13 0
9 5 15 11 13 6 -2 11 -8 11 -13z"/>
<path d="M2640 3254 c25 -7 52 -13 60 -13 21 1 -60 27 -85 28 -11 0 0 -7 25
-15z"/>
<path d="M2256 3191 c-3 -5 1 -17 10 -25 8 -9 11 -16 5 -16 -17 0 -13 -37 5
-44 41 -16 61 7 29 34 -8 6 -13 21 -12 33 2 22 -26 36 -37 18z m49 -61 c3 -5
-3 -10 -14 -10 -12 0 -21 5 -21 10 0 6 6 10 14 10 8 0 18 -4 21 -10z"/>
<path d="M2332 3159 c2 -6 8 -10 13 -10 5 0 11 4 13 10 2 6 -4 11 -13 11 -9 0
-15 -5 -13 -11z"/>
<path d="M1096 3022 c-3 -6 -1 -14 5 -17 15 -10 25 3 12 16 -7 7 -13 7 -17 1z"/>
<path d="M1175 2920 c-4 -7 -3 -16 3 -22 14 -14 45 -2 40 15 -6 16 -34 21 -43
7z"/>
<path d="M1097 2913 c-2 -5 -3 -25 -3 -47 1 -42 22 -64 51 -52 30 11 3 106
-31 106 -7 0 -15 -3 -17 -7z m33 -18 c0 -8 -4 -15 -9 -15 -13 0 -22 16 -14 24
11 11 23 6 23 -9z"/>
<path d="M5360 2725 c-10 -11 -10 -19 -2 -27 15 -15 44 -2 40 19 -4 23 -22 27
-38 8z"/>
<path d="M5294 2657 c-2 -7 5 -34 16 -60 16 -36 26 -47 43 -47 54 0 61 43 14
88 -34 33 -64 41 -73 19z m40 -6 c3 -5 -1 -14 -8 -20 -16 -13 -32 2 -21 19 8
12 22 13 29 1z"/>
<path d="M1173 2553 c-33 -13 -2 -68 34 -61 25 5 29 39 7 55 -19 14 -22 14
-41 6z"/>
<path d="M1147 2434 c-9 -10 2 -24 19 -24 8 0 14 7 14 15 0 15 -21 21 -33 9z"/>
<path d="M2010 2265 c0 -8 5 -15 10 -15 6 0 10 7 10 15 0 8 -4 15 -10 15 -5 0
-10 -7 -10 -15z"/>
<path d="M2072 2217 c-10 -11 -9 -17 3 -27 24 -20 45 4 24 26 -14 13 -17 13
-27 1z"/>
<path d="M2030 2165 c-21 -25 -1 -70 30 -70 21 0 25 5 25 29 0 38 -36 64 -55
41z"/>
<path d="M5052 2069 c2 -6 8 -10 13 -10 5 0 11 4 13 10 2 6 -4 11 -13 11 -9 0
-15 -5 -13 -11z"/>
<path d="M5110 2040 c0 -5 5 -10 11 -10 5 0 7 5 4 10 -3 6 -8 10 -11 10 -2 0
-4 -4 -4 -10z"/>
<path d="M5040 2009 c-10 -17 -9 -24 4 -37 15 -15 17 -15 33 1 13 13 15 21 7
34 -16 26 -31 26 -44 2z m30 -19 c0 -5 -4 -10 -10 -10 -5 0 -10 5 -10 10 0 6
5 10 10 10 6 0 10 -4 10 -10z"/>
<path d="M2145 1991 c-8 -15 3 -31 21 -31 9 0 14 7 12 17 -4 20 -24 28 -33 14z"/>
<path d="M2086 1912 c-3 -6 -1 -14 5 -17 15 -10 25 3 12 16 -7 7 -13 7 -17 1z"/>
<path d="M1855 1511 c-3 -5 -1 -12 5 -16 5 -3 10 1 10 9 0 18 -6 21 -15 7z"/>
<path d="M1725 1490 c-3 -5 -1 -10 4 -10 6 0 11 5 11 10 0 6 -2 10 -4 10 -3 0
-8 -4 -11 -10z"/>
<path d="M4476 1481 c-9 -14 4 -41 21 -41 9 0 13 8 11 22 -3 23 -23 35 -32 19z"/>
<path d="M1774 1465 c-4 -8 -1 -22 6 -30 18 -21 50 -19 50 3 0 36 -45 57 -56
27z"/>
<path d="M4497 1404 c-8 -8 1 -24 14 -24 5 0 9 7 9 15 0 15 -12 20 -23 9z"/>
<path d="M3844 1209 c-10 -17 13 -36 27 -22 12 12 4 33 -11 33 -5 0 -12 -5
-16 -11z"/>
<path d="M4130 1170 c-12 -7 -12 -13 -4 -27 14 -23 28 -22 32 1 5 24 -10 37
-28 26z"/>
<path d="M2420 1146 c0 -9 7 -16 16 -16 17 0 14 22 -4 28 -7 2 -12 -3 -12 -12z"/>
<path d="M2355 1083 c8 -45 18 -58 40 -50 11 5 14 14 9 34 -10 49 -13 53 -35
53 -19 0 -21 -4 -14 -37z"/>
<path d="M3892 1108 c-26 -26 -8 -78 28 -78 25 0 52 35 48 62 -2 17 -10 24
-33 26 -17 2 -36 -3 -43 -10z"/>
<path d="M2322 1073 c2 -9 10 -19 18 -21 12 -4 13 -3 3 10 -7 8 -10 18 -6 21
3 4 1 7 -6 7 -7 0 -11 -8 -9 -17z"/>
<path d="M3786 1071 c-3 -5 1 -14 8 -20 16 -13 32 2 21 19 -8 12 -22 13 -29 1z"/>
<path d="M3764 996 c-11 -28 1 -51 25 -51 28 0 47 25 38 49 -8 20 -56 21 -63
2z"/>
<path d="M3100 936 c0 -9 7 -16 16 -16 17 0 14 22 -4 28 -7 2 -12 -3 -12 -12z"/>
<path d="M3156 934 c-7 -19 10 -44 29 -44 7 0 18 7 25 15 10 12 10 18 0 30
-16 20 -46 19 -54 -1z"/>
<path d="M3091 901 c-17 -11 -7 -41 13 -41 22 0 30 20 15 36 -9 8 -19 10 -28
5z m29 -15 c0 -3 -4 -8 -10 -11 -5 -3 -10 -1 -10 4 0 6 5 11 10 11 6 0 10 -2
10 -4z"/>
</g>
</svg>
